<?xml version="1.0" encoding="utf-8" standalone="no"?>
<!DOCTYPE svg PUBLIC "-//W3C//DTD SVG 1.1//EN"
  "http://www.w3.org/Graphics/SVG/1.1/DTD/svg11.dtd">
<svg xmlns:xlink="http://www.w3.org/1999/xlink" width="426.468263pt" height="282.96pt" viewBox="0 0 426.468263 282.96" xmlns="http://www.w3.org/2000/svg" version="1.1">
 <metadata>
  <rdf:RDF xmlns:dc="http://purl.org/dc/elements/1.1/" xmlns:cc="http://creativecommons.org/ns#" xmlns:rdf="http://www.w3.org/1999/02/22-rdf-syntax-ns#">
   <cc:Work>
    <dc:type rdf:resource="http://purl.org/dc/dcmitype/StillImage"/>
    <dc:date>2026-04-21T15:49:44.137043</dc:date>
    <dc:format>image/svg+xml</dc:format>
    <dc:creator>
     <cc:Agent>
      <dc:title>Matplotlib v3.10.8, https://matplotlib.org/</dc:title>
     </cc:Agent>
    </dc:creator>
   </cc:Work>
  </rdf:RDF>
 </metadata>
 <defs>
  <style type="text/css">*{stroke-linejoin: round; stroke-linecap: butt}</style>
 </defs>
 <g id="figure_1">
  <g id="patch_1">
   <path d="M -0 282.96 
L 426.468263 282.96 
L 426.468263 0 
L -0 0 
z
" style="fill: #ffffff"/>
  </g>
  <g id="axes_1">
   <g id="patch_2">
    <path d="M 265.866599 81.502799 
L 265.949202 81.629802 
L 266.034497 81.756634 
L 266.122481 81.883287 
L 266.213149 82.009757 
L 266.306499 82.136038 
L 266.402526 82.262125 
L 266.501225 82.388011 
L 266.602593 82.513693 
L 266.706624 82.639163 
L 266.813316 82.764417 
L 266.922662 82.88945 
L 267.034658 83.014255 
L 267.149299 83.138827 
L 267.266581 83.263161 
L 267.386497 83.387252 
L 267.509044 83.511094 
L 267.634215 83.634682 
L 267.762005 83.758009 
L 267.892408 83.881072 
L 268.02542 84.003864 
L 268.161033 84.126381 
L 268.299243 84.248616 
L 268.440042 84.370565 
L 268.583426 84.492222 
L 268.729387 84.613582 
L 268.87792 84.73464 
L 269.029017 84.85539 
L 269.182673 84.975827 
L 269.338881 85.095947 
L 269.497633 85.215742 
L 269.658923 85.335209 
L 269.822744 85.454343 
L 269.989089 85.573137 
L 270.157951 85.691588 
L 270.329321 85.809689 
L 270.503193 85.927435 
L 270.679559 86.044822 
L 270.858412 86.161844 
L 271.039743 86.278497 
L 271.223545 86.394774 
L 271.40981 86.510672 
L 271.598529 86.626185 
L 271.789695 86.741307 
L 271.983299 86.856035 
L 272.179332 86.970363 
L 272.377786 87.084285 
L 272.578653 87.197798 
L 272.781924 87.310895 
L 272.987589 87.423573 
L 273.195641 87.535826 
L 273.406069 87.64765 
L 273.618865 87.759039 
L 273.834019 87.869988 
L 274.051522 87.980494 
L 274.271365 88.09055 
L 274.493537 88.200153 
L 274.71803 88.309297 
L 274.944834 88.417978 
L 275.173938 88.52619 
L 275.405332 88.63393 
L 275.639008 88.741192 
L 275.874953 88.847973 
L 276.113159 88.954266 
L 276.353615 89.060068 
L 276.596309 89.165374 
L 276.841233 89.270179 
L 277.088374 89.37448 
L 277.337723 89.47827 
L 277.589268 89.581546 
L 277.842998 89.684304 
L 278.098903 89.786538 
L 278.356971 89.888244 
L 278.617191 89.989419 
L 278.879552 90.090057 
L 279.144042 90.190154 
L 279.41065 90.289705 
L 279.679364 90.388707 
L 279.950172 90.487156 
L 280.223063 90.585046 
L 280.498024 90.682373 
L 280.775044 90.779134 
L 281.054111 90.875324 
L 281.335212 90.970939 
L 281.618336 91.065975 
L 281.90347 91.160427 
L 282.190601 91.254291 
L 282.479717 91.347564 
L 282.770805 91.440242 
L 283.063853 91.532319 
L 283.358848 91.623793 
L 283.655778 91.714659 
L 283.954628 91.804914 
L 284.255387 91.894553 
L 284.55804 91.983572 
L 284.862576 92.071968 
L 285.16898 92.159737 
L 285.477239 92.246875 
L 285.78734 92.333378 
L 286.09927 92.419242 
L 286.413014 92.504464 
L 286.728559 92.58904 
L 287.045892 92.672966 
L 287.364998 92.756239 
L 287.685864 92.838854 
L 288.008475 92.920809 
L 288.332818 93.0021 
L 288.658879 93.082723 
L 288.986643 93.162675 
L 289.316095 93.241952 
L 289.647222 93.320551 
L 289.98001 93.398468 
L 290.314443 93.4757 
L 290.650507 93.552244 
L 290.988188 93.628096 
L 291.32747 93.703253 
L 291.66834 93.777712 
L 292.010782 93.851469 
L 292.354781 93.924522 
L 292.700322 93.996866 
L 304.386971 88.555438 
L 304.15661 88.507208 
L 303.927278 88.458506 
L 303.698983 88.409335 
L 303.471737 88.359696 
L 303.245549 88.309591 
L 303.020428 88.259023 
L 302.796385 88.207993 
L 302.57343 88.156505 
L 302.351572 88.104561 
L 302.13082 88.052161 
L 301.911185 87.99931 
L 301.692676 87.946009 
L 301.475302 87.89226 
L 301.259074 87.838066 
L 301.043999 87.783429 
L 300.830089 87.728352 
L 300.617351 87.672837 
L 300.405796 87.616887 
L 300.195433 87.560503 
L 299.98627 87.503688 
L 299.778317 87.446445 
L 299.571583 87.388777 
L 299.366076 87.330685 
L 299.161807 87.272172 
L 298.958783 87.213242 
L 298.757014 87.153895 
L 298.556509 87.094136 
L 298.357275 87.033966 
L 298.159322 86.973389 
L 297.962659 86.912406 
L 297.767293 86.851021 
L 297.573234 86.789236 
L 297.38049 86.727054 
L 297.18907 86.664478 
L 296.998981 86.60151 
L 296.810232 86.538153 
L 296.622831 86.474409 
L 296.436786 86.410283 
L 296.252106 86.345776 
L 296.068798 86.280891 
L 295.886871 86.215631 
L 295.706332 86.149998 
L 295.52719 86.083997 
L 295.349451 86.017629 
L 295.173125 85.950898 
L 294.998218 85.883806 
L 294.824738 85.816356 
L 294.652692 85.748552 
L 294.482089 85.680396 
L 294.312935 85.611891 
L 294.145238 85.54304 
L 293.979006 85.473846 
L 293.814245 85.404313 
L 293.650963 85.334443 
L 293.489166 85.264239 
L 293.328863 85.193704 
L 293.170059 85.122842 
L 293.012762 85.051655 
L 292.856978 84.980147 
L 292.702715 84.90832 
L 292.549979 84.836178 
L 292.398777 84.763725 
L 292.249115 84.690962 
L 292.101 84.617894 
L 291.954438 84.544523 
L 291.809436 84.470852 
L 291.666 84.396886 
L 291.524136 84.322627 
L 291.38385 84.248078 
L 291.24515 84.173242 
L 291.108039 84.098124 
L 290.972526 84.022725 
L 290.838614 83.94705 
L 290.706311 83.871102 
L 290.575622 83.794883 
L 290.446553 83.718398 
L 290.319109 83.64165 
L 290.193297 83.564641 
L 290.06912 83.487376 
L 289.946585 83.409858 
L 289.825698 83.33209 
L 289.706463 83.254075 
L 289.588885 83.175817 
L 289.472971 83.097319 
L 289.358724 83.018585 
L 289.246149 82.939618 
L 289.135253 82.860422 
L 289.026039 82.781 
L 288.918512 82.701355 
L 288.812677 82.621491 
L 288.708539 82.541412 
L 288.606102 82.46112 
L 288.50537 82.38062 
L 288.406348 82.299915 
L 288.309041 82.219008 
L 288.213451 82.137903 
L 288.119585 82.056604 
L 288.027445 81.975114 
L 287.937036 81.893436 
L 287.848362 81.811575 
L 287.761426 81.729533 
L 287.676233 81.647314 
L 287.592786 81.564923 
L 287.511088 81.482361 
L 287.431144 81.399634 
L 287.352956 81.316745 
L 287.276529 81.233697 
L 287.201864 81.150493 
L 287.128967 81.067138 
L 287.05784 80.983636 
L 286.988485 80.899989 
L 286.920907 80.816201 
L 286.855107 80.732277 
L 286.791089 80.648219 
L 286.728856 80.564031 
L 286.66841 80.479718 
L 286.609754 80.395282 
L 286.552891 80.310728 
L 286.497823 80.226059 
z
" clip-path="url(#pff08212b51)" style="fill: #e76f51; opacity: 0.72; stroke: #2b2b2b; stroke-width: 0.9; stroke-linejoin: miter"/>
   </g>
   <g id="patch_3">
    <path d="M 265.866599 81.502799 
L 265.992053 81.694043 
L 266.123611 81.884889 
L 266.261262 82.075319 
L 266.404991 82.265314 
L 266.554785 82.454855 
L 266.710627 82.643924 
L 266.872504 82.832501 
L 267.040399 83.020568 
L 267.214295 83.208106 
L 267.394176 83.395098 
L 267.580022 83.581523 
L 267.771817 83.767365 
L 267.969541 83.952605 
L 268.173175 84.137223 
L 268.382698 84.321203 
L 268.59809 84.504525 
L 268.819329 84.687173 
L 269.046393 84.869127 
L 269.279261 85.050369 
L 269.517909 85.230883 
L 269.762314 85.410649 
L 270.012451 85.589651 
L 270.268295 85.76787 
L 270.529822 85.945289 
L 270.797006 86.121891 
L 271.069819 86.297657 
L 271.348236 86.472571 
L 271.632229 86.646615 
L 271.921768 86.819772 
L 272.216827 86.992025 
L 272.517376 87.163357 
L 272.823385 87.33375 
L 273.134823 87.503189 
L 273.451661 87.671657 
L 273.773866 87.839136 
L 274.101407 88.00561 
L 274.434252 88.171063 
L 274.772367 88.335478 
L 275.11572 88.498839 
L 275.464276 88.66113 
L 275.818 88.822336 
L 276.176859 88.982439 
L 276.540815 89.141424 
L 276.909835 89.299276 
L 277.28388 89.455979 
L 277.662914 89.611517 
L 278.046899 89.765875 
L 278.435798 89.919037 
L 278.829573 90.07099 
L 279.228183 90.221717 
L 279.63159 90.371203 
L 280.039755 90.519435 
L 280.452635 90.666396 
L 280.870192 90.812074 
L 281.292383 90.956452 
L 281.719167 91.099518 
L 282.150501 91.241257 
L 282.586343 91.381655 
L 283.026651 91.520697 
L 283.471379 91.658371 
L 283.920485 91.794663 
L 284.373924 91.929559 
L 284.831651 92.063045 
L 285.293622 92.19511 
L 285.759789 92.325739 
L 286.230108 92.454919 
L 286.704531 92.582639 
L 287.183012 92.708885 
L 287.665504 92.833645 
L 288.151959 92.956906 
L 288.642328 93.078657 
L 289.136564 93.198885 
L 289.634617 93.317578 
L 290.136439 93.434725 
L 290.641979 93.550315 
L 291.151188 93.664335 
L 291.664015 93.776774 
L 292.18041 93.887622 
L 292.700322 93.996866 
L 292.700322 142.49518 
L 292.18041 142.385935 
L 291.664015 142.275088 
L 291.151188 142.162648 
L 290.641979 142.048628 
L 290.136439 141.933039 
L 289.634617 141.815892 
L 289.136564 141.697199 
L 288.642328 141.576971 
L 288.151959 141.45522 
L 287.665504 141.331959 
L 287.183012 141.207199 
L 286.704531 141.080953 
L 286.230108 140.953233 
L 285.759789 140.824052 
L 285.293622 140.693423 
L 284.831651 140.561359 
L 284.373924 140.427872 
L 283.920485 140.292976 
L 283.471379 140.156685 
L 283.026651 140.019011 
L 282.586343 139.879968 
L 282.150501 139.739571 
L 281.719167 139.597832 
L 281.292383 139.454766 
L 280.870192 139.310387 
L 280.452635 139.16471 
L 280.039755 139.017748 
L 279.63159 138.869517 
L 279.228183 138.72003 
L 278.829573 138.569303 
L 278.435798 138.417351 
L 278.046899 138.264188 
L 277.662914 138.10983 
L 277.28388 137.954292 
L 276.909835 137.79759 
L 276.540815 137.639738 
L 276.176859 137.480752 
L 275.818 137.320649 
L 275.464276 137.159444 
L 275.11572 136.997153 
L 274.772367 136.833791 
L 274.434252 136.669376 
L 274.101407 136.503923 
L 273.773866 136.337449 
L 273.451661 136.16997 
L 273.134823 136.001503 
L 272.823385 135.832064 
L 272.517376 135.66167 
L 272.216827 135.490338 
L 271.921768 135.318085 
L 271.632229 135.144928 
L 271.348236 134.970884 
L 271.069819 134.795971 
L 270.797006 134.620204 
L 270.529822 134.443603 
L 270.268295 134.266184 
L 270.012451 134.087965 
L 269.762314 133.908963 
L 269.517909 133.729197 
L 269.279261 133.548683 
L 269.046393 133.36744 
L 268.819329 133.185486 
L 268.59809 133.002839 
L 268.382698 132.819517 
L 268.173175 132.635537 
L 267.969541 132.450918 
L 267.771817 132.265679 
L 267.580022 132.079837 
L 267.394176 131.893411 
L 267.214295 131.70642 
L 267.040399 131.518882 
L 266.872504 131.330814 
L 266.710627 131.142237 
L 266.554785 130.953169 
L 266.404991 130.763628 
L 266.261262 130.573633 
L 266.123611 130.383203 
L 265.992053 130.192356 
L 265.866599 130.001112 
z
" clip-path="url(#pff08212b51)" style="fill: #d24d33; opacity: 0.45; stroke: #2b2b2b; stroke-width: 0.9; stroke-linejoin: miter"/>
   </g>
   <g id="patch_4">
    <path d="M 6.438613 192.408854 
L 6.926512 192.801677 
L 7.446114 193.190716 
L 7.997105 193.575733 
L 8.579148 193.956495 
L 9.19189 194.332768 
L 9.834955 194.704325 
L 10.507954 195.070939 
L 11.210476 195.432386 
L 11.942092 195.788447 
L 12.702358 196.138904 
L 13.49081 196.483544 
L 14.306969 196.822157 
L 15.150336 197.154536 
L 16.020398 197.48048 
L 16.916625 197.79979 
L 17.838471 198.11227 
L 18.785375 198.417732 
L 19.75676 198.715989 
L 20.752034 199.006858 
L 21.770591 199.290164 
L 22.81181 199.565732 
L 23.875058 199.833397 
L 24.959686 200.092993 
L 26.065033 200.344365 
L 27.190428 200.587357 
L 28.335183 200.821822 
L 29.498602 201.047618 
L 30.679975 201.264607 
L 31.878585 201.472656 
L 33.093699 201.671639 
L 34.324578 201.861435 
L 35.570473 202.041928 
L 36.830624 202.213008 
L 38.104264 202.374571 
L 39.390616 202.526519 
L 40.688898 202.668759 
L 41.998318 202.801203 
L 43.31808 202.923773 
L 44.647378 203.036392 
L 45.985403 203.138993 
L 47.331341 203.231513 
L 48.684371 203.313895 
L 50.043669 203.38609 
L 51.408407 203.448053 
L 52.777754 203.499746 
L 54.150875 203.541139 
L 55.526935 203.572206 
L 56.905095 203.592927 
L 58.284515 203.603291 
L 59.664355 203.603291 
L 61.043776 203.592927 
L 62.421935 203.572206 
L 63.797995 203.541139 
L 65.171117 203.499746 
L 66.540463 203.448053 
L 67.905202 203.38609 
L 69.264499 203.313895 
L 70.617529 203.231513 
L 71.963467 203.138993 
L 73.301492 203.036392 
L 74.63079 202.923773 
L 75.950552 202.801203 
L 77.259972 202.668759 
L 78.558254 202.526519 
L 79.844607 202.374571 
L 81.118246 202.213008 
L 82.378397 202.041928 
L 83.624292 201.861435 
L 84.855171 201.671639 
L 86.070286 201.472656 
L 87.268895 201.264607 
L 88.450268 201.047618 
L 89.613687 200.821822 
L 90.758442 200.587357 
L 91.883837 200.344365 
L 92.989184 200.092993 
L 94.073812 199.833397 
L 95.13706 199.565732 
L 96.178279 199.290164 
L 97.196836 199.006858 
L 98.19211 198.715989 
L 99.163495 198.417732 
L 100.110399 198.11227 
L 101.032245 197.79979 
L 101.928472 197.48048 
L 102.798534 197.154536 
L 103.641901 196.822157 
L 104.45806 196.483544 
L 105.246512 196.138904 
L 106.006778 195.788447 
L 106.738395 195.432386 
L 107.440916 195.070939 
L 108.113915 194.704325 
L 108.756981 194.332768 
L 109.369722 193.956495 
L 109.951765 193.575733 
L 110.502756 193.190716 
L 111.022358 192.801677 
L 111.510257 192.408854 
L 111.510257 236.162514 
L 111.022358 236.555336 
L 110.502756 236.944375 
L 109.951765 237.329392 
L 109.369722 237.710154 
L 108.756981 238.086428 
L 108.113915 238.457985 
L 107.440916 238.824599 
L 106.738395 239.186046 
L 106.006778 239.542106 
L 105.246512 239.892563 
L 104.45806 240.237203 
L 103.641901 240.575816 
L 102.798534 240.908196 
L 101.928472 241.23414 
L 101.032245 241.553449 
L 100.110399 241.86593 
L 99.163495 242.171391 
L 98.19211 242.469648 
L 97.196836 242.760517 
L 96.178279 243.043823 
L 95.13706 243.319392 
L 94.073812 243.587056 
L 92.989184 243.846653 
L 91.883837 244.098024 
L 90.758442 244.341016 
L 89.613687 244.575482 
L 88.450268 244.801278 
L 87.268895 245.018266 
L 86.070286 245.226315 
L 84.855171 245.425299 
L 83.624292 245.615095 
L 82.378397 245.795588 
L 81.118246 245.966668 
L 79.844607 246.128231 
L 78.558254 246.280178 
L 77.259972 246.422418 
L 75.950552 246.554863 
L 74.63079 246.677432 
L 73.301492 246.790052 
L 71.963467 246.892653 
L 70.617529 246.985172 
L 69.264499 247.067555 
L 67.905202 247.139749 
L 66.540463 247.201712 
L 65.171117 247.253406 
L 63.797995 247.294798 
L 62.421935 247.325865 
L 61.043776 247.346587 
L 59.664355 247.356951 
L 58.284515 247.356951 
L 56.905095 247.346587 
L 55.526935 247.325865 
L 54.150875 247.294798 
L 52.777754 247.253406 
L 51.408407 247.201712 
L 50.043669 247.139749 
L 48.684371 247.067555 
L 47.331341 246.985172 
L 45.985403 246.892653 
L 44.647378 246.790052 
L 43.31808 246.677432 
L 41.998318 246.554863 
L 40.688898 246.422418 
L 39.390616 246.280178 
L 38.104264 246.128231 
L 36.830624 245.966668 
L 35.570473 245.795588 
L 34.324578 245.615095 
L 33.093699 245.425299 
L 31.878585 245.226315 
L 30.679975 245.018266 
L 29.498602 244.801278 
L 28.335183 244.575482 
L 27.190428 244.341016 
L 26.065033 244.098024 
L 24.959686 243.846653 
L 23.875058 243.587056 
L 22.81181 243.319392 
L 21.770591 243.043823 
L 20.752034 242.760517 
L 19.75676 242.469648 
L 18.785375 242.171391 
L 17.838471 241.86593 
L 16.916625 241.553449 
L 16.020398 241.23414 
L 15.150336 240.908196 
L 14.306969 240.575816 
L 13.49081 240.237203 
L 12.702358 239.892563 
L 11.942092 239.542106 
L 11.210476 239.186046 
L 10.507954 238.824599 
L 9.834955 238.457985 
L 9.19189 238.086428 
L 8.579148 237.710154 
L 7.997105 237.329392 
L 7.446114 236.944375 
L 6.926512 236.555336 
L 6.438613 236.162514 
z
" clip-path="url(#pff08212b51)" style="fill: #f9f9f9; stroke: #2b2b2b; stroke-width: 0.85; stroke-linejoin: miter"/>
   </g>
   <g id="patch_5">
    <path d="M 29.280275 189.706907 
L 6.438613 192.408854 
L 6.438613 236.162514 
L 29.280275 233.460566 
z
" clip-path="url(#pff08212b51)" style="fill: #ededed; stroke: #2b2b2b; stroke-width: 0.8; stroke-linejoin: miter"/>
   </g>
   <g id="patch_6">
    <path d="M 88.668595 189.706907 
L 111.510257 192.408854 
L 111.510257 236.162514 
L 88.668595 233.460566 
z
" clip-path="url(#pff08212b51)" style="fill: #f1f1f1; stroke: #2b2b2b; stroke-width: 0.8; stroke-linejoin: miter"/>
   </g>
   <g id="patch_7">
    <path d="M 29.280275 189.706907 
L 29.556044 189.917347 
L 29.849732 190.125761 
L 30.161162 190.33202 
L 30.490143 190.536 
L 30.836475 190.737575 
L 31.199947 190.936623 
L 31.580337 191.133024 
L 31.977414 191.326656 
L 32.390937 191.517403 
L 32.820652 191.705148 
L 33.266299 191.889776 
L 33.727606 192.071176 
L 34.204292 192.249236 
L 34.696066 192.423849 
L 35.202629 192.594908 
L 35.723673 192.762308 
L 36.25888 192.925948 
L 36.807923 193.085729 
L 37.370469 193.241552 
L 37.946175 193.393322 
L 38.534691 193.540949 
L 39.135657 193.68434 
L 39.748707 193.82341 
L 40.373469 193.958073 
L 41.009561 194.088247 
L 41.656597 194.213854 
L 42.314181 194.334816 
L 42.981914 194.45106 
L 43.659389 194.562515 
L 44.346193 194.669113 
L 45.041907 194.770789 
L 45.746109 194.867482 
L 46.458368 194.959132 
L 47.178251 195.045684 
L 47.90532 195.127084 
L 48.639132 195.203284 
L 49.379239 195.274237 
L 50.125191 195.339899 
L 50.876533 195.400231 
L 51.632808 195.455195 
L 52.393556 195.50476 
L 53.158312 195.548893 
L 53.926611 195.587569 
L 54.697984 195.620763 
L 55.471963 195.648456 
L 56.248075 195.670631 
L 57.025848 195.687274 
L 57.804808 195.698374 
L 58.58448 195.703926 
L 59.36439 195.703926 
L 60.144062 195.698374 
L 60.923022 195.687274 
L 61.700795 195.670631 
L 62.476907 195.648456 
L 63.250886 195.620763 
L 64.02226 195.587569 
L 64.790558 195.548893 
L 65.555314 195.50476 
L 66.316062 195.455195 
L 67.072337 195.400231 
L 67.823679 195.339899 
L 68.569631 195.274237 
L 69.309739 195.203284 
L 70.04355 195.127084 
L 70.770619 195.045684 
L 71.490502 194.959132 
L 72.202761 194.867482 
L 72.906963 194.770789 
L 73.602677 194.669113 
L 74.289481 194.562515 
L 74.966956 194.45106 
L 75.634689 194.334816 
L 76.292273 194.213854 
L 76.939309 194.088247 
L 77.575401 193.958073 
L 78.200163 193.82341 
L 78.813214 193.68434 
L 79.414179 193.540949 
L 80.002695 193.393322 
L 80.578401 193.241552 
L 81.140947 193.085729 
L 81.689991 192.925948 
L 82.225197 192.762308 
L 82.746241 192.594908 
L 83.252804 192.423849 
L 83.744578 192.249236 
L 84.221264 192.071176 
L 84.682571 191.889776 
L 85.128218 191.705148 
L 85.557933 191.517403 
L 85.971456 191.326656 
L 86.368533 191.133024 
L 86.748924 190.936623 
L 87.112396 190.737575 
L 87.458728 190.536 
L 87.787708 190.33202 
L 88.099138 190.125761 
L 88.392827 189.917347 
L 88.668595 189.706907 
L 88.668595 233.460566 
L 88.392827 233.671007 
L 88.099138 233.87942 
L 87.787708 234.08568 
L 87.458728 234.289659 
L 87.112396 234.491234 
L 86.748924 234.690283 
L 86.368533 234.886683 
L 85.971456 235.080315 
L 85.557933 235.271062 
L 85.128218 235.458807 
L 84.682571 235.643435 
L 84.221264 235.824835 
L 83.744578 236.002896 
L 83.252804 236.177508 
L 82.746241 236.348567 
L 82.225197 236.515968 
L 81.689991 236.679608 
L 81.140947 236.839388 
L 80.578401 236.995211 
L 80.002695 237.146982 
L 79.414179 237.294608 
L 78.813214 237.437999 
L 78.200163 237.577069 
L 77.575401 237.711732 
L 76.939309 237.841907 
L 76.292273 237.967513 
L 75.634689 238.088475 
L 74.966956 238.204719 
L 74.289481 238.316174 
L 73.602677 238.422772 
L 72.906963 238.524449 
L 72.202761 238.621141 
L 71.490502 238.712791 
L 70.770619 238.799343 
L 70.04355 238.880744 
L 69.309739 238.956943 
L 68.569631 239.027896 
L 67.823679 239.093558 
L 67.072337 239.15389 
L 66.316062 239.208855 
L 65.555314 239.258419 
L 64.790558 239.302552 
L 64.02226 239.341228 
L 63.250886 239.374422 
L 62.476907 239.402115 
L 61.700795 239.42429 
L 60.923022 239.440933 
L 60.144062 239.452034 
L 59.36439 239.457586 
L 58.58448 239.457586 
L 57.804808 239.452034 
L 57.025848 239.440933 
L 56.248075 239.42429 
L 55.471963 239.402115 
L 54.697984 239.374422 
L 53.926611 239.341228 
L 53.158312 239.302552 
L 52.393556 239.258419 
L 51.632808 239.208855 
L 50.876533 239.15389 
L 50.125191 239.093558 
L 49.379239 239.027896 
L 48.639132 238.956943 
L 47.90532 238.880744 
L 47.178251 238.799343 
L 46.458368 238.712791 
L 45.746109 238.621141 
L 45.041907 238.524449 
L 44.346193 238.422772 
L 43.659389 238.316174 
L 42.981914 238.204719 
L 42.314181 238.088475 
L 41.656597 237.967513 
L 41.009561 237.841907 
L 40.373469 237.711732 
L 39.748707 237.577069 
L 39.135657 237.437999 
L 38.534691 237.294608 
L 37.946175 237.146982 
L 37.370469 236.995211 
L 36.807923 236.839388 
L 36.25888 236.679608 
L 35.723673 236.515968 
L 35.202629 236.348567 
L 34.696066 236.177508 
L 34.204292 236.002896 
L 33.727606 235.824835 
L 33.266299 235.643435 
L 32.820652 235.458807 
L 32.390937 235.271062 
L 31.977414 235.080315 
L 31.580337 234.886683 
L 31.199947 234.690283 
L 30.836475 234.491234 
L 30.490143 234.289659 
L 30.161162 234.08568 
L 29.849732 233.87942 
L 29.556044 233.671007 
L 29.280275 233.460566 
z
" clip-path="url(#pff08212b51)" style="fill: #ffffff; opacity: 0.95; stroke: #2b2b2b; stroke-width: 0.75; stroke-linejoin: miter"/>
   </g>
   <g id="patch_8">
    <path d="M 6.438613 192.408854 
L 7.055072 192.900535 
L 7.721195 193.386178 
L 8.436346 193.86532 
L 9.199841 194.337502 
L 10.010949 194.802271 
L 10.868895 195.259185 
L 11.772858 195.707805 
L 12.721973 196.147702 
L 13.715333 196.578456 
L 14.751986 196.999654 
L 15.830941 197.410894 
L 16.951167 197.811782 
L 18.111592 198.201935 
L 19.311105 198.58098 
L 20.54856 198.948553 
L 21.822772 199.304304 
L 23.132522 199.647892 
L 24.476559 199.978988 
L 25.853595 200.297276 
L 27.262314 200.602451 
L 28.701368 200.894221 
L 30.169381 201.172307 
L 31.664949 201.436444 
L 33.18664 201.686378 
L 34.732999 201.921871 
L 36.302547 202.142696 
L 37.893783 202.348644 
L 39.505184 202.539516 
L 41.135209 202.71513 
L 42.782298 202.875319 
L 44.444877 203.019929 
L 46.121354 203.148822 
L 47.810127 203.261874 
L 49.509579 203.358978 
L 51.218085 203.44004 
L 52.93401 203.504982 
L 54.655714 203.553744 
L 56.381549 203.586278 
L 58.109864 203.602552 
L 59.839006 203.602552 
L 61.567321 203.586278 
L 63.293156 203.553744 
L 65.01486 203.504982 
L 66.730785 203.44004 
L 68.439291 203.358978 
L 70.138743 203.261874 
L 71.827516 203.148822 
L 73.503993 203.019929 
L 75.166572 202.875319 
L 76.813662 202.71513 
L 78.443686 202.539516 
L 80.055087 202.348644 
L 81.646323 202.142696 
L 83.215871 201.921871 
L 84.762231 201.686378 
L 86.283922 201.436444 
L 87.779489 201.172307 
L 89.247502 200.894221 
L 90.686556 200.602451 
L 92.095275 200.297276 
L 93.472312 199.978988 
L 94.816348 199.647892 
L 96.126098 199.304304 
L 97.40031 198.948553 
L 98.637765 198.58098 
L 99.837278 198.201935 
L 100.997703 197.811782 
L 102.117929 197.410894 
L 103.196884 196.999654 
L 104.233538 196.578456 
L 105.226897 196.147702 
L 106.176012 195.707805 
L 107.079975 195.259185 
L 107.937921 194.802271 
L 108.749029 194.337502 
L 109.512524 193.86532 
L 110.227675 193.386178 
L 110.893799 192.900535 
L 111.510257 192.408854 
L 88.668595 189.706907 
L 88.320162 189.970307 
L 87.943658 190.230473 
L 87.539442 190.487156 
L 87.107901 190.740111 
L 86.649449 190.989094 
L 86.164523 191.233869 
L 85.653587 191.474201 
L 85.117131 191.709861 
L 84.555667 191.940622 
L 83.969732 192.166264 
L 83.359888 192.386571 
L 82.726717 192.601332 
L 82.070825 192.810343 
L 81.392839 193.013402 
L 80.693408 193.210317 
L 79.973201 193.400897 
L 79.232908 193.584962 
L 78.473235 193.762335 
L 77.69491 193.932847 
L 76.898677 194.096333 
L 76.085299 194.252639 
L 75.255552 194.401614 
L 74.410232 194.543115 
L 73.550146 194.677009 
L 72.676116 194.803165 
L 71.788981 194.921465 
L 70.889586 195.031794 
L 69.978795 195.134047 
L 69.057476 195.228126 
L 68.126512 195.313942 
L 67.186794 195.391411 
L 66.23922 195.460461 
L 65.284696 195.521025 
L 64.324136 195.573044 
L 63.358459 195.61647 
L 62.388588 195.651261 
L 61.415451 195.677383 
L 60.439979 195.694812 
L 59.463106 195.703531 
L 58.485764 195.703531 
L 57.508891 195.694812 
L 56.533419 195.677383 
L 55.560282 195.651261 
L 54.590411 195.61647 
L 53.624734 195.573044 
L 52.664174 195.521025 
L 51.70965 195.460461 
L 50.762076 195.391411 
L 49.822358 195.313942 
L 48.891394 195.228126 
L 47.970076 195.134047 
L 47.059284 195.031794 
L 46.15989 194.921465 
L 45.272754 194.803165 
L 44.398725 194.677009 
L 43.538638 194.543115 
L 42.693318 194.401614 
L 41.863571 194.252639 
L 41.050193 194.096333 
L 40.25396 193.932847 
L 39.475635 193.762335 
L 38.715963 193.584962 
L 37.975669 193.400897 
L 37.255462 193.210317 
L 36.556031 193.013402 
L 35.878046 192.810343 
L 35.222153 192.601332 
L 34.588982 192.386571 
L 33.979138 192.166264 
L 33.393203 191.940622 
L 32.831739 191.709861 
L 32.295283 191.474201 
L 31.784347 191.233869 
L 31.299421 190.989094 
L 30.840969 190.740111 
L 30.409428 190.487156 
L 30.005212 190.230473 
L 29.628708 189.970307 
L 29.280275 189.706907 
z
" clip-path="url(#pff08212b51)" style="fill: #f7f7f7; stroke: #2b2b2b; stroke-width: 0.9; stroke-linejoin: miter"/>
   </g>
   <g id="patch_9">
    <path d="M 146.674701 192.408854 
L 147.162599 192.801677 
L 147.682202 193.190716 
L 148.233193 193.575733 
L 148.815236 193.956495 
L 149.427977 194.332768 
L 150.071043 194.704325 
L 150.744042 195.070939 
L 151.446563 195.432386 
L 152.17818 195.788447 
L 152.938446 196.138904 
L 153.726898 196.483544 
L 154.543056 196.822157 
L 155.386423 197.154536 
L 156.256486 197.48048 
L 157.152713 197.79979 
L 158.074559 198.11227 
L 159.021463 198.417732 
L 159.992848 198.715989 
L 160.988122 199.006858 
L 162.006679 199.290164 
L 163.047898 199.565732 
L 164.111146 199.833397 
L 165.195773 200.092993 
L 166.301121 200.344365 
L 167.426515 200.587357 
L 168.571271 200.821822 
L 169.734689 201.047618 
L 170.916063 201.264607 
L 172.114672 201.472656 
L 173.329787 201.671639 
L 174.560666 201.861435 
L 175.806561 202.041928 
L 177.066712 202.213008 
L 178.340351 202.374571 
L 179.626704 202.526519 
L 180.924986 202.668759 
L 182.234406 202.801203 
L 183.554167 202.923773 
L 184.883466 203.036392 
L 186.221491 203.138993 
L 187.567429 203.231513 
L 188.920458 203.313895 
L 190.279756 203.38609 
L 191.644494 203.448053 
L 193.013841 203.499746 
L 194.386963 203.541139 
L 195.763022 203.572206 
L 197.141182 203.592927 
L 198.520603 203.603291 
L 199.900443 203.603291 
L 201.279863 203.592927 
L 202.658023 203.572206 
L 204.034083 203.541139 
L 205.407204 203.499746 
L 206.776551 203.448053 
L 208.141289 203.38609 
L 209.500587 203.313895 
L 210.853617 203.231513 
L 212.199555 203.138993 
L 213.53758 203.036392 
L 214.866878 202.923773 
L 216.186639 202.801203 
L 217.49606 202.668759 
L 218.794342 202.526519 
L 220.080694 202.374571 
L 221.354334 202.213008 
L 222.614485 202.041928 
L 223.86038 201.861435 
L 225.091259 201.671639 
L 226.306373 201.472656 
L 227.504982 201.264607 
L 228.686356 201.047618 
L 229.849775 200.821822 
L 230.99453 200.587357 
L 232.119924 200.344365 
L 233.225272 200.092993 
L 234.3099 199.833397 
L 235.373147 199.565732 
L 236.414367 199.290164 
L 237.432924 199.006858 
L 238.428198 198.715989 
L 239.399582 198.417732 
L 240.346486 198.11227 
L 241.268333 197.79979 
L 242.16456 197.48048 
L 243.034622 197.154536 
L 243.877989 196.822157 
L 244.694147 196.483544 
L 245.4826 196.138904 
L 246.242866 195.788447 
L 246.974482 195.432386 
L 247.677004 195.070939 
L 248.350003 194.704325 
L 248.993068 194.332768 
L 249.605809 193.956495 
L 250.187853 193.575733 
L 250.738843 193.190716 
L 251.258446 192.801677 
L 251.746344 192.408854 
L 251.746344 236.162514 
L 251.258446 236.555336 
L 250.738843 236.944375 
L 250.187853 237.329392 
L 249.605809 237.710154 
L 248.993068 238.086428 
L 248.350003 238.457985 
L 247.677004 238.824599 
L 246.974482 239.186046 
L 246.242866 239.542106 
L 245.4826 239.892563 
L 244.694147 240.237203 
L 243.877989 240.575816 
L 243.034622 240.908196 
L 242.16456 241.23414 
L 241.268333 241.553449 
L 240.346486 241.86593 
L 239.399582 242.171391 
L 238.428198 242.469648 
L 237.432924 242.760517 
L 236.414367 243.043823 
L 235.373147 243.319392 
L 234.3099 243.587056 
L 233.225272 243.846653 
L 232.119924 244.098024 
L 230.99453 244.341016 
L 229.849775 244.575482 
L 228.686356 244.801278 
L 227.504982 245.018266 
L 226.306373 245.226315 
L 225.091259 245.425299 
L 223.86038 245.615095 
L 222.614485 245.795588 
L 221.354334 245.966668 
L 220.080694 246.128231 
L 218.794342 246.280178 
L 217.49606 246.422418 
L 216.186639 246.554863 
L 214.866878 246.677432 
L 213.53758 246.790052 
L 212.199555 246.892653 
L 210.853617 246.985172 
L 209.500587 247.067555 
L 208.141289 247.139749 
L 206.776551 247.201712 
L 205.407204 247.253406 
L 204.034083 247.294798 
L 202.658023 247.325865 
L 201.279863 247.346587 
L 199.900443 247.356951 
L 198.520603 247.356951 
L 197.141182 247.346587 
L 195.763022 247.325865 
L 194.386963 247.294798 
L 193.013841 247.253406 
L 191.644494 247.201712 
L 190.279756 247.139749 
L 188.920458 247.067555 
L 187.567429 246.985172 
L 186.221491 246.892653 
L 184.883466 246.790052 
L 183.554167 246.677432 
L 182.234406 246.554863 
L 180.924986 246.422418 
L 179.626704 246.280178 
L 178.340351 246.128231 
L 177.066712 245.966668 
L 175.806561 245.795588 
L 174.560666 245.615095 
L 173.329787 245.425299 
L 172.114672 245.226315 
L 170.916063 245.018266 
L 169.734689 244.801278 
L 168.571271 244.575482 
L 167.426515 244.341016 
L 166.301121 244.098024 
L 165.195773 243.846653 
L 164.111146 243.587056 
L 163.047898 243.319392 
L 162.006679 243.043823 
L 160.988122 242.760517 
L 159.992848 242.469648 
L 159.021463 242.171391 
L 158.074559 241.86593 
L 157.152713 241.553449 
L 156.256486 241.23414 
L 155.386423 240.908196 
L 154.543056 240.575816 
L 153.726898 240.237203 
L 152.938446 239.892563 
L 152.17818 239.542106 
L 151.446563 239.186046 
L 150.744042 238.824599 
L 150.071043 238.457985 
L 149.427977 238.086428 
L 148.815236 237.710154 
L 148.233193 237.329392 
L 147.682202 236.944375 
L 147.162599 236.555336 
L 146.674701 236.162514 
z
" clip-path="url(#pff08212b51)" style="fill: #f9f9f9; stroke: #2b2b2b; stroke-width: 0.85; stroke-linejoin: miter"/>
   </g>
   <g id="patch_10">
    <path d="M 169.516363 189.706907 
L 146.674701 192.408854 
L 146.674701 236.162514 
L 169.516363 233.460566 
z
" clip-path="url(#pff08212b51)" style="fill: #ededed; stroke: #2b2b2b; stroke-width: 0.8; stroke-linejoin: miter"/>
   </g>
   <g id="patch_11">
    <path d="M 228.904683 189.706907 
L 251.746344 192.408854 
L 251.746344 236.162514 
L 228.904683 233.460566 
z
" clip-path="url(#pff08212b51)" style="fill: #f1f1f1; stroke: #2b2b2b; stroke-width: 0.8; stroke-linejoin: miter"/>
   </g>
   <g id="patch_12">
    <path d="M 169.516363 189.706907 
L 169.792131 189.917347 
L 170.08582 190.125761 
L 170.397249 190.33202 
L 170.72623 190.536 
L 171.072562 190.737575 
L 171.436034 190.936623 
L 171.816425 191.133024 
L 172.213502 191.326656 
L 172.627025 191.517403 
L 173.05674 191.705148 
L 173.502387 191.889776 
L 173.963694 192.071176 
L 174.44038 192.249236 
L 174.932154 192.423849 
L 175.438717 192.594908 
L 175.959761 192.762308 
L 176.494967 192.925948 
L 177.044011 193.085729 
L 177.606557 193.241552 
L 178.182263 193.393322 
L 178.770778 193.540949 
L 179.371744 193.68434 
L 179.984795 193.82341 
L 180.609557 193.958073 
L 181.245649 194.088247 
L 181.892685 194.213854 
L 182.550269 194.334816 
L 183.218002 194.45106 
L 183.895477 194.562515 
L 184.582281 194.669113 
L 185.277995 194.770789 
L 185.982196 194.867482 
L 186.694456 194.959132 
L 187.414339 195.045684 
L 188.141408 195.127084 
L 188.875219 195.203284 
L 189.615326 195.274237 
L 190.361278 195.339899 
L 191.112621 195.400231 
L 191.868896 195.455195 
L 192.629643 195.50476 
L 193.394399 195.548893 
L 194.162698 195.587569 
L 194.934072 195.620763 
L 195.708051 195.648456 
L 196.484163 195.670631 
L 197.261936 195.687274 
L 198.040896 195.698374 
L 198.820568 195.703926 
L 199.600478 195.703926 
L 200.38015 195.698374 
L 201.15911 195.687274 
L 201.936883 195.670631 
L 202.712995 195.648456 
L 203.486974 195.620763 
L 204.258347 195.587569 
L 205.026646 195.548893 
L 205.791402 195.50476 
L 206.552149 195.455195 
L 207.308425 195.400231 
L 208.059767 195.339899 
L 208.805719 195.274237 
L 209.545826 195.203284 
L 210.279638 195.127084 
L 211.006707 195.045684 
L 211.72659 194.959132 
L 212.438849 194.867482 
L 213.14305 194.770789 
L 213.838765 194.669113 
L 214.525569 194.562515 
L 215.203043 194.45106 
L 215.870776 194.334816 
L 216.528361 194.213854 
L 217.175397 194.088247 
L 217.811489 193.958073 
L 218.436251 193.82341 
L 219.049301 193.68434 
L 219.650267 193.540949 
L 220.238782 193.393322 
L 220.814488 193.241552 
L 221.377035 193.085729 
L 221.926078 192.925948 
L 222.461285 192.762308 
L 222.982328 192.594908 
L 223.488892 192.423849 
L 223.980666 192.249236 
L 224.457352 192.071176 
L 224.918658 191.889776 
L 225.364305 191.705148 
L 225.794021 191.517403 
L 226.207543 191.326656 
L 226.604621 191.133024 
L 226.985011 190.936623 
L 227.348483 190.737575 
L 227.694815 190.536 
L 228.023796 190.33202 
L 228.335226 190.125761 
L 228.628914 189.917347 
L 228.904683 189.706907 
L 228.904683 233.460566 
L 228.628914 233.671007 
L 228.335226 233.87942 
L 228.023796 234.08568 
L 227.694815 234.289659 
L 227.348483 234.491234 
L 226.985011 234.690283 
L 226.604621 234.886683 
L 226.207543 235.080315 
L 225.794021 235.271062 
L 225.364305 235.458807 
L 224.918658 235.643435 
L 224.457352 235.824835 
L 223.980666 236.002896 
L 223.488892 236.177508 
L 222.982328 236.348567 
L 222.461285 236.515968 
L 221.926078 236.679608 
L 221.377035 236.839388 
L 220.814488 236.995211 
L 220.238782 237.146982 
L 219.650267 237.294608 
L 219.049301 237.437999 
L 218.436251 237.577069 
L 217.811489 237.711732 
L 217.175397 237.841907 
L 216.528361 237.967513 
L 215.870776 238.088475 
L 215.203043 238.204719 
L 214.525569 238.316174 
L 213.838765 238.422772 
L 213.14305 238.524449 
L 212.438849 238.621141 
L 211.72659 238.712791 
L 211.006707 238.799343 
L 210.279638 238.880744 
L 209.545826 238.956943 
L 208.805719 239.027896 
L 208.059767 239.093558 
L 207.308425 239.15389 
L 206.552149 239.208855 
L 205.791402 239.258419 
L 205.026646 239.302552 
L 204.258347 239.341228 
L 203.486974 239.374422 
L 202.712995 239.402115 
L 201.936883 239.42429 
L 201.15911 239.440933 
L 200.38015 239.452034 
L 199.600478 239.457586 
L 198.820568 239.457586 
L 198.040896 239.452034 
L 197.261936 239.440933 
L 196.484163 239.42429 
L 195.708051 239.402115 
L 194.934072 239.374422 
L 194.162698 239.341228 
L 193.394399 239.302552 
L 192.629643 239.258419 
L 191.868896 239.208855 
L 191.112621 239.15389 
L 190.361278 239.093558 
L 189.615326 239.027896 
L 188.875219 238.956943 
L 188.141408 238.880744 
L 187.414339 238.799343 
L 186.694456 238.712791 
L 185.982196 238.621141 
L 185.277995 238.524449 
L 184.582281 238.422772 
L 183.895477 238.316174 
L 183.218002 238.204719 
L 182.550269 238.088475 
L 181.892685 237.967513 
L 181.245649 237.841907 
L 180.609557 237.711732 
L 179.984795 237.577069 
L 179.371744 237.437999 
L 178.770778 237.294608 
L 178.182263 237.146982 
L 177.606557 236.995211 
L 177.044011 236.839388 
L 176.494967 236.679608 
L 175.959761 236.515968 
L 175.438717 236.348567 
L 174.932154 236.177508 
L 174.44038 236.002896 
L 173.963694 235.824835 
L 173.502387 235.643435 
L 173.05674 235.458807 
L 172.627025 235.271062 
L 172.213502 235.080315 
L 171.816425 234.886683 
L 171.436034 234.690283 
L 171.072562 234.491234 
L 170.72623 234.289659 
L 170.397249 234.08568 
L 170.08582 233.87942 
L 169.792131 233.671007 
L 169.516363 233.460566 
z
" clip-path="url(#pff08212b51)" style="fill: #ffffff; opacity: 0.95; stroke: #2b2b2b; stroke-width: 0.75; stroke-linejoin: miter"/>
   </g>
   <g id="patch_13">
    <path d="M 146.674701 192.408854 
L 147.291159 192.900535 
L 147.957283 193.386178 
L 148.672434 193.86532 
L 149.435929 194.337502 
L 150.247037 194.802271 
L 151.104983 195.259185 
L 152.008946 195.707805 
L 152.958061 196.147702 
L 153.95142 196.578456 
L 154.988073 196.999654 
L 156.067029 197.410894 
L 157.187255 197.811782 
L 158.34768 198.201935 
L 159.547193 198.58098 
L 160.784647 198.948553 
L 162.058859 199.304304 
L 163.36861 199.647892 
L 164.712646 199.978988 
L 166.089683 200.297276 
L 167.498402 200.602451 
L 168.937456 200.894221 
L 170.405469 201.172307 
L 171.901036 201.436444 
L 173.422727 201.686378 
L 174.969087 201.921871 
L 176.538635 202.142696 
L 178.12987 202.348644 
L 179.741271 202.539516 
L 181.371296 202.71513 
L 183.018386 202.875319 
L 184.680965 203.019929 
L 186.357442 203.148822 
L 188.046215 203.261874 
L 189.745667 203.358978 
L 191.454172 203.44004 
L 193.170098 203.504982 
L 194.891802 203.553744 
L 196.617636 203.586278 
L 198.345952 203.602552 
L 200.075094 203.602552 
L 201.803409 203.586278 
L 203.529244 203.553744 
L 205.250948 203.504982 
L 206.966873 203.44004 
L 208.675379 203.358978 
L 210.374831 203.261874 
L 212.063603 203.148822 
L 213.740081 203.019929 
L 215.40266 202.875319 
L 217.049749 202.71513 
L 218.679774 202.539516 
L 220.291175 202.348644 
L 221.882411 202.142696 
L 223.451959 201.921871 
L 224.998318 201.686378 
L 226.520009 201.436444 
L 228.015577 201.172307 
L 229.48359 200.894221 
L 230.922644 200.602451 
L 232.331363 200.297276 
L 233.708399 199.978988 
L 235.052436 199.647892 
L 236.362186 199.304304 
L 237.636398 198.948553 
L 238.873853 198.58098 
L 240.073366 198.201935 
L 241.23379 197.811782 
L 242.354016 197.410894 
L 243.432972 196.999654 
L 244.469625 196.578456 
L 245.462985 196.147702 
L 246.4121 195.707805 
L 247.316062 195.259185 
L 248.174008 194.802271 
L 248.985117 194.337502 
L 249.748612 193.86532 
L 250.463763 193.386178 
L 251.129886 192.900535 
L 251.746344 192.408854 
L 228.904683 189.706907 
L 228.55625 189.970307 
L 228.179745 190.230473 
L 227.77553 190.487156 
L 227.343989 190.740111 
L 226.885536 190.989094 
L 226.40061 191.233869 
L 225.889675 191.474201 
L 225.353219 191.709861 
L 224.791755 191.940622 
L 224.20582 192.166264 
L 223.595976 192.386571 
L 222.962804 192.601332 
L 222.306912 192.810343 
L 221.628927 193.013402 
L 220.929496 193.210317 
L 220.209289 193.400897 
L 219.468995 193.584962 
L 218.709323 193.762335 
L 217.930998 193.932847 
L 217.134765 194.096333 
L 216.321387 194.252639 
L 215.49164 194.401614 
L 214.64632 194.543115 
L 213.786233 194.677009 
L 212.912204 194.803165 
L 212.025068 194.921465 
L 211.125674 195.031794 
L 210.214882 195.134047 
L 209.293564 195.228126 
L 208.3626 195.313942 
L 207.422882 195.391411 
L 206.475308 195.460461 
L 205.520784 195.521025 
L 204.560224 195.573044 
L 203.594547 195.61647 
L 202.624676 195.651261 
L 201.651539 195.677383 
L 200.676067 195.694812 
L 199.699193 195.703531 
L 198.721852 195.703531 
L 197.744978 195.694812 
L 196.769506 195.677383 
L 195.79637 195.651261 
L 194.826499 195.61647 
L 193.860821 195.573044 
L 192.900262 195.521025 
L 191.945738 195.460461 
L 190.998164 195.391411 
L 190.058445 195.313942 
L 189.127482 195.228126 
L 188.206163 195.134047 
L 187.295371 195.031794 
L 186.395977 194.921465 
L 185.508841 194.803165 
L 184.634812 194.677009 
L 183.774726 194.543115 
L 182.929405 194.401614 
L 182.099659 194.252639 
L 181.28628 194.096333 
L 180.490048 193.932847 
L 179.711723 193.762335 
L 178.95205 193.584962 
L 178.211757 193.400897 
L 177.49155 193.210317 
L 176.792119 193.013402 
L 176.114133 192.810343 
L 175.458241 192.601332 
L 174.82507 192.386571 
L 174.215225 192.166264 
L 173.629291 191.940622 
L 173.067827 191.709861 
L 172.531371 191.474201 
L 172.020435 191.233869 
L 171.535509 190.989094 
L 171.077057 190.740111 
L 170.645516 190.487156 
L 170.2413 190.230473 
L 169.864796 189.970307 
L 169.516363 189.706907 
z
" clip-path="url(#pff08212b51)" style="fill: #f7f7f7; stroke: #2b2b2b; stroke-width: 0.9; stroke-linejoin: miter"/>
   </g>
   <g id="line2d_1">
    <path d="M 390.866509 77.67258 
L 390.779542 76.642206 
L 390.51888 75.614672 
L 389.902449 74.253937 
L 388.981579 72.90995 
L 387.760782 71.589296 
L 386.246038 70.298444 
L 384.444769 69.043718 
L 382.365798 67.831266 
L 379.392209 66.384175 
L 376.02348 65.023474 
L 372.28539 63.759577 
L 368.206548 62.602157 
L 363.818169 61.560072 
L 358.190964 60.472974 
L 352.228496 59.575369 
L 345.996455 58.877145 
L 339.563501 58.385997 
L 333.000507 58.107333 
L 326.37978 58.044226 
L 319.774263 58.19737 
L 313.256729 58.565077 
L 306.898985 59.143297 
L 300.771076 59.925659 
L 294.940514 60.903544 
L 289.471536 62.066178 
L 284.424395 63.400752 
L 280.580953 64.633685 
L 277.098576 65.966406 
L 274.003914 67.388715 
L 271.320651 68.889726 
L 269.484158 70.1395 
L 267.933164 71.426178 
L 266.675267 72.743458 
L 265.716629 74.084887 
L 265.061947 75.443891 
L 264.714429 76.813814 
L 264.656447 77.844386 
L 264.772393 78.874484 
L 265.061947 79.901269 
L 265.716629 81.260274 
L 266.675267 82.601702 
L 267.933164 83.918982 
L 269.484158 85.205661 
L 271.320651 86.455434 
L 273.433646 87.66218 
L 276.447824 89.10112 
L 279.854698 90.452598 
L 283.628196 91.706269 
L 287.739437 92.85254 
L 292.156959 93.882639 
L 297.814526 94.954375 
L 303.802013 95.835713 
L 310.053455 96.516943 
L 316.499978 96.990559 
L 323.070559 97.251344 
L 329.692807 97.296424 
L 336.293764 97.125303 
L 342.800705 96.739866 
L 349.141942 96.144359 
L 355.247611 95.345344 
L 361.050444 94.351623 
L 366.48651 93.174144 
L 370.693051 92.061843 
L 374.571026 90.83942 
L 378.090756 89.516231 
L 381.225306 88.102403 
L 383.950686 86.608754 
L 385.822262 85.364028 
L 387.409388 84.081621 
L 388.704289 82.767816 
L 389.700622 81.429049 
L 390.393504 80.071879 
L 390.779542 78.702954 
L 390.866509 77.67258 
L 390.866509 77.67258 
" clip-path="url(#pff08212b51)" style="fill: none; stroke: #2b2b2b; stroke-width: 1.2; stroke-linecap: square"/>
   </g>
   <g id="line2d_2">
    <path d="M 390.866509 271.665835 
L 390.779056 270.632585 
L 390.516937 269.602199 
L 389.897069 268.23774 
L 388.971087 266.89017 
L 387.743552 265.566126 
L 386.220511 264.272133 
L 384.409469 263.014564 
L 382.319346 261.799615 
L 379.330049 260.34996 
L 375.94388 258.98739 
L 372.186899 257.722391 
L 368.088019 256.564698 
L 363.678783 255.523221 
L 358.025962 254.438072 
L 352.037831 253.543786 
L 345.780733 252.850272 
L 339.323989 252.365213 
L 332.739132 252.093982 
L 326.099115 252.039586 
L 319.477501 252.202625 
L 312.947651 252.581295 
L 306.581908 253.171399 
L 300.450797 253.966401 
L 294.622244 254.957492 
L 289.160822 256.133692 
L 284.933875 257.245919 
L 281.036512 258.469119 
L 277.498727 259.793879 
L 274.347745 261.210003 
L 271.607817 262.706594 
L 269.726113 263.95408 
L 268.130313 265.239559 
L 266.828277 266.556696 
L 265.82642 267.899003 
L 265.129678 269.259868 
L 264.741484 270.632585 
L 264.65403 271.665835 
L 264.65403 271.665835 
" clip-path="url(#pff08212b51)" style="fill: none; stroke: #7d7d7d; stroke-opacity: 0.5; stroke-width: 0.8; stroke-linecap: square"/>
   </g>
   <g id="line2d_3">
    <path d="M 264.65403 271.665835 
L 264.741484 272.699084 
L 265.003603 273.72947 
L 265.62347 275.093929 
L 266.549453 276.4415 
L 267.776988 277.765543 
L 269.300028 279.059537 
L 271.111071 280.317105 
L 273.201194 281.532054 
L 276.190491 282.981709 
L 278.561646 283.96 
M 376.958894 283.96 
L 379.960439 282.698397 
L 382.8675 281.232644 
L 385.350465 279.693266 
L 387.018535 278.416699 
L 388.39467 277.106873 
L 389.472093 275.770243 
L 390.245494 274.413392 
L 390.711064 273.043006 
L 390.85679 272.010393 
L 390.866509 271.665835 
L 390.866509 271.665835 
" clip-path="url(#pff08212b51)" style="fill: none; stroke: #2b2b2b; stroke-linecap: square"/>
   </g>
   <g id="line2d_4">
    <path d="M 264.65403 77.67258 
L 264.65403 271.665835 
" clip-path="url(#pff08212b51)" style="fill: none; stroke: #2b2b2b; stroke-width: 1.2; stroke-linecap: square"/>
   </g>
   <g id="line2d_5">
    <path d="M 390.866509 77.67258 
L 390.866509 271.665835 
" clip-path="url(#pff08212b51)" style="fill: none; stroke: #2b2b2b; stroke-width: 1.2; stroke-linecap: square"/>
   </g>
   <g id="line2d_6">
    <path d="M 265.866599 81.502799 
L 265.866599 275.496053 
" clip-path="url(#pff08212b51)" style="fill: none; stroke: #7d7d7d; stroke-opacity: 0.8; stroke-width: 0.7; stroke-linecap: square"/>
   </g>
   <g id="line2d_7">
    <path d="M 269.457707 85.185824 
L 269.457707 279.179079 
" clip-path="url(#pff08212b51)" style="fill: none; stroke: #7d7d7d; stroke-opacity: 0.8; stroke-width: 0.7; stroke-linecap: square"/>
   </g>
   <g id="line2d_8">
    <path d="M 275.289349 88.58012 
L 275.289349 282.573374 
" clip-path="url(#pff08212b51)" style="fill: none; stroke: #7d7d7d; stroke-opacity: 0.8; stroke-width: 0.7; stroke-linecap: square"/>
   </g>
   <g id="line2d_9">
    <path d="M 283.13742 91.555245 
L 283.13742 283.96 
" clip-path="url(#pff08212b51)" style="fill: none; stroke: #7d7d7d; stroke-opacity: 0.8; stroke-width: 0.7; stroke-linecap: square"/>
   </g>
   <g id="line2d_10">
    <path d="M 292.700322 93.996866 
L 292.700322 283.96 
" clip-path="url(#pff08212b51)" style="fill: none; stroke: #7d7d7d; stroke-opacity: 0.8; stroke-width: 0.7; stroke-linecap: square"/>
   </g>
   <g id="line2d_11">
    <path d="M 303.610557 95.811155 
L 303.610557 283.96 
" clip-path="url(#pff08212b51)" style="fill: none; stroke: #7d7d7d; stroke-opacity: 0.8; stroke-width: 0.7; stroke-linecap: square"/>
   </g>
   <g id="line2d_12">
    <path d="M 315.448853 96.928389 
L 315.448853 283.96 
" clip-path="url(#pff08212b51)" style="fill: none; stroke: #7d7d7d; stroke-opacity: 0.8; stroke-width: 0.7; stroke-linecap: square"/>
   </g>
   <g id="line2d_13">
    <path d="M 327.76027 97.305632 
L 327.76027 283.96 
" clip-path="url(#pff08212b51)" style="fill: none; stroke: #7d7d7d; stroke-opacity: 0.8; stroke-width: 0.7; stroke-linecap: square"/>
   </g>
   <g id="line2d_14">
    <path d="M 340.071686 96.928389 
L 340.071686 283.96 
" clip-path="url(#pff08212b51)" style="fill: none; stroke: #7d7d7d; stroke-opacity: 0.8; stroke-width: 0.7; stroke-linecap: square"/>
   </g>
   <g id="line2d_15">
    <path d="M 351.909982 95.811155 
L 351.909982 283.96 
" clip-path="url(#pff08212b51)" style="fill: none; stroke: #7d7d7d; stroke-opacity: 0.8; stroke-width: 0.7; stroke-linecap: square"/>
   </g>
   <g id="line2d_16">
    <path d="M 362.820218 93.996866 
L 362.820218 283.96 
" clip-path="url(#pff08212b51)" style="fill: none; stroke: #7d7d7d; stroke-opacity: 0.8; stroke-width: 0.7; stroke-linecap: square"/>
   </g>
   <g id="line2d_17">
    <path d="M 372.38312 91.555245 
L 372.38312 283.96 
" clip-path="url(#pff08212b51)" style="fill: none; stroke: #7d7d7d; stroke-opacity: 0.8; stroke-width: 0.7; stroke-linecap: square"/>
   </g>
   <g id="line2d_18">
    <path d="M 380.23119 88.58012 
L 380.23119 282.573374 
" clip-path="url(#pff08212b51)" style="fill: none; stroke: #7d7d7d; stroke-opacity: 0.8; stroke-width: 0.7; stroke-linecap: square"/>
   </g>
   <g id="line2d_19">
    <path d="M 386.062833 85.185824 
L 386.062833 279.179079 
" clip-path="url(#pff08212b51)" style="fill: none; stroke: #7d7d7d; stroke-opacity: 0.8; stroke-width: 0.7; stroke-linecap: square"/>
   </g>
   <g id="line2d_20">
    <path d="M 389.653941 81.502799 
L 389.653941 275.496053 
" clip-path="url(#pff08212b51)" style="fill: none; stroke: #7d7d7d; stroke-opacity: 0.8; stroke-width: 0.7; stroke-linecap: square"/>
   </g>
   <g id="line2d_21">
    <path d="M 264.65403 93.838685 
L 264.741484 94.871934 
L 265.003603 95.90232 
L 265.62347 97.266779 
L 266.549453 98.61435 
L 267.776988 99.938393 
L 269.300028 101.232387 
L 271.111071 102.489955 
L 273.201194 103.704904 
L 276.190491 105.154559 
L 279.576659 106.517129 
L 283.333641 107.782128 
L 287.432521 108.939821 
L 291.841757 109.981298 
L 297.494578 111.066448 
L 303.482709 111.960733 
L 309.739807 112.654247 
L 316.196551 113.139307 
L 322.781408 113.410537 
L 329.421425 113.464934 
L 336.043038 113.301894 
L 342.572888 112.923225 
L 348.938631 112.33312 
L 355.069742 111.538119 
L 360.898296 110.547028 
L 366.359718 109.370827 
L 370.586665 108.2586 
L 374.484028 107.0354 
L 378.021813 105.71064 
L 381.172794 104.294516 
L 383.912723 102.797926 
L 385.794426 101.550439 
L 387.390227 100.264961 
L 388.692263 98.947823 
L 389.694119 97.605516 
L 390.390861 96.244652 
L 390.779056 94.871934 
L 390.866509 93.838685 
L 390.866509 93.838685 
" clip-path="url(#pff08212b51)" style="fill: none; stroke: #7d7d7d; stroke-opacity: 0.75; stroke-width: 0.7; stroke-linecap: square"/>
   </g>
   <g id="line2d_22">
    <path d="M 264.65403 110.004789 
L 264.741484 111.038039 
L 265.003603 112.068425 
L 265.62347 113.432884 
L 266.549453 114.780454 
L 267.776988 116.104498 
L 269.300028 117.398491 
L 271.111071 118.65606 
L 273.201194 119.871008 
L 276.190491 121.320664 
L 279.576659 122.683234 
L 283.333641 123.948233 
L 287.432521 125.105926 
L 291.841757 126.147403 
L 297.494578 127.232552 
L 303.482709 128.126838 
L 309.739807 128.820352 
L 316.196551 129.305411 
L 322.781408 129.576642 
L 329.421425 129.631038 
L 336.043038 129.467999 
L 342.572888 129.089329 
L 348.938631 128.499225 
L 355.069742 127.704223 
L 360.898296 126.713132 
L 366.359718 125.536932 
L 370.586665 124.424705 
L 374.484028 123.201505 
L 378.021813 121.876745 
L 381.172794 120.460621 
L 383.912723 118.96403 
L 385.794426 117.716544 
L 387.390227 116.431065 
L 388.692263 115.113928 
L 389.694119 113.771621 
L 390.390861 112.410756 
L 390.779056 111.038039 
L 390.866509 110.004789 
L 390.866509 110.004789 
" clip-path="url(#pff08212b51)" style="fill: none; stroke: #7d7d7d; stroke-opacity: 0.75; stroke-width: 0.7; stroke-linecap: square"/>
   </g>
   <g id="line2d_23">
    <path d="M 264.65403 126.170894 
L 264.741484 127.204143 
L 265.003603 128.234529 
L 265.62347 129.598988 
L 266.549453 130.946559 
L 267.776988 132.270602 
L 269.300028 133.564596 
L 271.111071 134.822165 
L 273.201194 136.037113 
L 276.190491 137.486768 
L 279.576659 138.849338 
L 283.333641 140.114337 
L 287.432521 141.27203 
L 291.841757 142.313507 
L 297.494578 143.398657 
L 303.482709 144.292942 
L 309.739807 144.986456 
L 316.196551 145.471516 
L 322.781408 145.742746 
L 329.421425 145.797143 
L 336.043038 145.634103 
L 342.572888 145.255434 
L 348.938631 144.665329 
L 355.069742 143.870328 
L 360.898296 142.879237 
L 366.359718 141.703036 
L 370.586665 140.590809 
L 374.484028 139.367609 
L 378.021813 138.042849 
L 381.172794 136.626725 
L 383.912723 135.130135 
L 385.794426 133.882648 
L 387.390227 132.59717 
L 388.692263 131.280032 
L 389.694119 129.937725 
L 390.390861 128.576861 
L 390.779056 127.204143 
L 390.866509 126.170894 
L 390.866509 126.170894 
" clip-path="url(#pff08212b51)" style="fill: none; stroke: #7d7d7d; stroke-opacity: 0.75; stroke-width: 0.7; stroke-linecap: square"/>
   </g>
   <g id="line2d_24">
    <path d="M 264.65403 142.336998 
L 264.741484 143.370248 
L 265.003603 144.400634 
L 265.62347 145.765093 
L 266.549453 147.112663 
L 267.776988 148.436707 
L 269.300028 149.7307 
L 271.111071 150.988269 
L 273.201194 152.203218 
L 276.190491 153.652873 
L 279.576659 155.015443 
L 283.333641 156.280442 
L 287.432521 157.438135 
L 291.841757 158.479612 
L 297.494578 159.564761 
L 303.482709 160.459047 
L 309.739807 161.152561 
L 316.196551 161.63762 
L 322.781408 161.908851 
L 329.421425 161.963247 
L 336.043038 161.800208 
L 342.572888 161.421538 
L 348.938631 160.831434 
L 355.069742 160.036432 
L 360.898296 159.045341 
L 366.359718 157.869141 
L 370.586665 156.756914 
L 374.484028 155.533714 
L 378.021813 154.208954 
L 381.172794 152.79283 
L 383.912723 151.296239 
L 385.794426 150.048753 
L 387.390227 148.763274 
L 388.692263 147.446137 
L 389.694119 146.10383 
L 390.390861 144.742965 
L 390.779056 143.370248 
L 390.866509 142.336998 
L 390.866509 142.336998 
" clip-path="url(#pff08212b51)" style="fill: none; stroke: #7d7d7d; stroke-opacity: 0.75; stroke-width: 0.7; stroke-linecap: square"/>
   </g>
   <g id="line2d_25">
    <path d="M 264.65403 158.503103 
L 264.741484 159.536352 
L 265.003603 160.566738 
L 265.62347 161.931197 
L 266.549453 163.278768 
L 267.776988 164.602811 
L 269.300028 165.896805 
L 271.111071 167.154374 
L 273.201194 168.369322 
L 276.190491 169.818977 
L 279.576659 171.181547 
L 283.333641 172.446546 
L 287.432521 173.604239 
L 291.841757 174.645716 
L 297.494578 175.730866 
L 303.482709 176.625151 
L 309.739807 177.318666 
L 316.196551 177.803725 
L 322.781408 178.074955 
L 329.421425 178.129352 
L 336.043038 177.966312 
L 342.572888 177.587643 
L 348.938631 176.997538 
L 355.069742 176.202537 
L 360.898296 175.211446 
L 366.359718 174.035246 
L 370.586665 172.923018 
L 374.484028 171.699818 
L 378.021813 170.375059 
L 381.172794 168.958934 
L 383.912723 167.462344 
L 385.794426 166.214857 
L 387.390227 164.929379 
L 388.692263 163.612241 
L 389.694119 162.269934 
L 390.390861 160.90907 
L 390.779056 159.536352 
L 390.866509 158.503103 
L 390.866509 158.503103 
" clip-path="url(#pff08212b51)" style="fill: none; stroke: #7d7d7d; stroke-opacity: 0.75; stroke-width: 0.7; stroke-linecap: square"/>
   </g>
   <g id="line2d_26">
    <path d="M 264.65403 174.669207 
L 264.741484 175.702457 
L 265.003603 176.732843 
L 265.62347 178.097302 
L 266.549453 179.444872 
L 267.776988 180.768916 
L 269.300028 182.062909 
L 271.111071 183.320478 
L 273.201194 184.535427 
L 276.190491 185.985082 
L 279.576659 187.347652 
L 283.333641 188.612651 
L 287.432521 189.770344 
L 291.841757 190.811821 
L 297.494578 191.89697 
L 303.482709 192.791256 
L 309.739807 193.48477 
L 316.196551 193.969829 
L 322.781408 194.24106 
L 329.421425 194.295457 
L 336.043038 194.132417 
L 342.572888 193.753747 
L 348.938631 193.163643 
L 355.069742 192.368641 
L 360.898296 191.37755 
L 366.359718 190.20135 
L 370.586665 189.089123 
L 374.484028 187.865923 
L 378.021813 186.541163 
L 381.172794 185.125039 
L 383.912723 183.628449 
L 385.794426 182.380962 
L 387.390227 181.095483 
L 388.692263 179.778346 
L 389.694119 178.436039 
L 390.390861 177.075174 
L 390.779056 175.702457 
L 390.866509 174.669207 
L 390.866509 174.669207 
" clip-path="url(#pff08212b51)" style="fill: none; stroke: #7d7d7d; stroke-opacity: 0.75; stroke-width: 0.7; stroke-linecap: square"/>
   </g>
   <g id="line2d_27">
    <path d="M 264.65403 190.835312 
L 264.741484 191.868562 
L 265.003603 192.898947 
L 265.62347 194.263406 
L 266.549453 195.610977 
L 267.776988 196.935021 
L 269.300028 198.229014 
L 271.111071 199.486583 
L 273.201194 200.701531 
L 276.190491 202.151186 
L 279.576659 203.513756 
L 283.333641 204.778756 
L 287.432521 205.936448 
L 291.841757 206.977925 
L 297.494578 208.063075 
L 303.482709 208.957361 
L 309.739807 209.650875 
L 316.196551 210.135934 
L 322.781408 210.407164 
L 329.421425 210.461561 
L 336.043038 210.298522 
L 342.572888 209.919852 
L 348.938631 209.329748 
L 355.069742 208.534746 
L 360.898296 207.543655 
L 366.359718 206.367455 
L 370.586665 205.255228 
L 374.484028 204.032027 
L 378.021813 202.707268 
L 381.172794 201.291144 
L 383.912723 199.794553 
L 385.794426 198.547066 
L 387.390227 197.261588 
L 388.692263 195.944451 
L 389.694119 194.602143 
L 390.390861 193.241279 
L 390.779056 191.868562 
L 390.866509 190.835312 
L 390.866509 190.835312 
" clip-path="url(#pff08212b51)" style="fill: none; stroke: #7d7d7d; stroke-opacity: 0.75; stroke-width: 0.7; stroke-linecap: square"/>
   </g>
   <g id="line2d_28">
    <path d="M 264.65403 207.001417 
L 264.741484 208.034666 
L 265.003603 209.065052 
L 265.62347 210.429511 
L 266.549453 211.777082 
L 267.776988 213.101125 
L 269.300028 214.395119 
L 271.111071 215.652687 
L 273.201194 216.867636 
L 276.190491 218.317291 
L 279.576659 219.679861 
L 283.333641 220.94486 
L 287.432521 222.102553 
L 291.841757 223.14403 
L 297.494578 224.22918 
L 303.482709 225.123465 
L 309.739807 225.816979 
L 316.196551 226.302038 
L 322.781408 226.573269 
L 329.421425 226.627666 
L 336.043038 226.464626 
L 342.572888 226.085956 
L 348.938631 225.495852 
L 355.069742 224.70085 
L 360.898296 223.709759 
L 366.359718 222.533559 
L 370.586665 221.421332 
L 374.484028 220.198132 
L 378.021813 218.873372 
L 381.172794 217.457248 
L 383.912723 215.960658 
L 385.794426 214.713171 
L 387.390227 213.427692 
L 388.692263 212.110555 
L 389.694119 210.768248 
L 390.390861 209.407383 
L 390.779056 208.034666 
L 390.866509 207.001417 
L 390.866509 207.001417 
" clip-path="url(#pff08212b51)" style="fill: none; stroke: #7d7d7d; stroke-opacity: 0.75; stroke-width: 0.7; stroke-linecap: square"/>
   </g>
   <g id="line2d_29">
    <path d="M 264.65403 223.167521 
L 264.741484 224.200771 
L 265.003603 225.231156 
L 265.62347 226.595615 
L 266.549453 227.943186 
L 267.776988 229.26723 
L 269.300028 230.561223 
L 271.111071 231.818792 
L 273.201194 233.03374 
L 276.190491 234.483395 
L 279.576659 235.845966 
L 283.333641 237.110965 
L 287.432521 238.268657 
L 291.841757 239.310135 
L 297.494578 240.395284 
L 303.482709 241.28957 
L 309.739807 241.983084 
L 316.196551 242.468143 
L 322.781408 242.739373 
L 329.421425 242.79377 
L 336.043038 242.630731 
L 342.572888 242.252061 
L 348.938631 241.661957 
L 355.069742 240.866955 
L 360.898296 239.875864 
L 366.359718 238.699664 
L 370.586665 237.587437 
L 374.484028 236.364237 
L 378.021813 235.039477 
L 381.172794 233.623353 
L 383.912723 232.126762 
L 385.794426 230.879275 
L 387.390227 229.593797 
L 388.692263 228.27666 
L 389.694119 226.934352 
L 390.390861 225.573488 
L 390.779056 224.200771 
L 390.866509 223.167521 
L 390.866509 223.167521 
" clip-path="url(#pff08212b51)" style="fill: none; stroke: #7d7d7d; stroke-opacity: 0.75; stroke-width: 0.7; stroke-linecap: square"/>
   </g>
   <g id="line2d_30">
    <path d="M 264.65403 239.333626 
L 264.741484 240.366875 
L 265.003603 241.397261 
L 265.62347 242.76172 
L 266.549453 244.109291 
L 267.776988 245.433334 
L 269.300028 246.727328 
L 271.111071 247.984896 
L 273.201194 249.199845 
L 276.190491 250.6495 
L 279.576659 252.01207 
L 283.333641 253.277069 
L 287.432521 254.434762 
L 291.841757 255.476239 
L 297.494578 256.561389 
L 303.482709 257.455674 
L 309.739807 258.149188 
L 316.196551 258.634248 
L 322.781408 258.905478 
L 329.421425 258.959875 
L 336.043038 258.796835 
L 342.572888 258.418166 
L 348.938631 257.828061 
L 355.069742 257.03306 
L 360.898296 256.041969 
L 366.359718 254.865768 
L 370.586665 253.753541 
L 374.484028 252.530341 
L 378.021813 251.205581 
L 381.172794 249.789457 
L 383.912723 248.292867 
L 385.794426 247.04538 
L 387.390227 245.759902 
L 388.692263 244.442764 
L 389.694119 243.100457 
L 390.390861 241.739593 
L 390.779056 240.366875 
L 390.866509 239.333626 
L 390.866509 239.333626 
" clip-path="url(#pff08212b51)" style="fill: none; stroke: #7d7d7d; stroke-opacity: 0.75; stroke-width: 0.7; stroke-linecap: square"/>
   </g>
   <g id="line2d_31">
    <path d="M 264.65403 255.49973 
L 264.741484 256.53298 
L 265.003603 257.563366 
L 265.62347 258.927825 
L 266.549453 260.275395 
L 267.776988 261.599439 
L 269.300028 262.893432 
L 271.111071 264.151001 
L 273.201194 265.365949 
L 276.190491 266.815605 
L 279.576659 268.178175 
L 283.333641 269.443174 
L 287.432521 270.600867 
L 291.841757 271.642344 
L 297.494578 272.727493 
L 303.482709 273.621779 
L 309.739807 274.315293 
L 316.196551 274.800352 
L 322.781408 275.071583 
L 329.421425 275.125979 
L 336.043038 274.96294 
L 342.572888 274.58427 
L 348.938631 273.994166 
L 355.069742 273.199164 
L 360.898296 272.208073 
L 366.359718 271.031873 
L 370.586665 269.919646 
L 374.484028 268.696446 
L 378.021813 267.371686 
L 381.172794 265.955562 
L 383.912723 264.458971 
L 385.794426 263.211485 
L 387.390227 261.926006 
L 388.692263 260.608869 
L 389.694119 259.266562 
L 390.390861 257.905697 
L 390.779056 256.53298 
L 390.866509 255.49973 
L 390.866509 255.49973 
" clip-path="url(#pff08212b51)" style="fill: none; stroke: #7d7d7d; stroke-opacity: 0.75; stroke-width: 0.7; stroke-linecap: square"/>
   </g>
   <g id="line2d_32">
    <path d="M 334.772074 77.67258 
L 334.658585 77.281686 
L 334.264455 76.857672 
L 333.515303 76.426387 
L 332.357447 76.025413 
L 330.63385 75.682735 
L 328.508905 75.503599 
L 326.310158 75.53829 
L 324.254368 75.783389 
L 322.651047 76.178559 
L 321.55445 76.657137 
L 320.982305 77.113913 
L 320.759575 77.549827 
L 320.802184 77.942089 
L 321.070032 78.325626 
L 321.629522 78.731242 
L 322.651047 79.166602 
L 324.118515 79.536731 
L 326.002743 79.784392 
L 328.194241 79.849848 
L 330.342955 79.70066 
L 332.237058 79.351536 
L 333.604044 78.878139 
L 334.375796 78.395551 
L 334.708161 77.966446 
L 334.772074 77.67258 
L 334.772074 77.67258 
" clip-path="url(#pff08212b51)" style="fill: none; stroke: #7d7d7d; stroke-opacity: 0.75; stroke-width: 0.6; stroke-linecap: square"/>
   </g>
   <g id="line2d_33">
    <path d="M 341.783879 77.67258 
L 341.656052 77.084847 
L 341.274901 76.507829 
L 340.647375 75.952045 
L 339.619373 75.343954 
L 338.086213 74.720523 
L 335.964768 74.134277 
L 333.50743 73.692889 
L 330.505819 73.394112 
L 327.365551 73.311408 
L 324.245217 73.448956 
L 321.302403 73.799808 
L 318.685729 74.346246 
L 316.719244 74.982641 
L 315.34863 75.641694 
L 314.477723 76.27308 
L 313.93622 76.939173 
L 313.744662 77.525227 
L 313.808612 78.113967 
L 314.126904 78.694661 
L 314.693736 79.256722 
L 315.655138 79.875268 
L 317.119743 80.514453 
L 318.928792 81.061644 
L 321.302403 81.545352 
L 324.245217 81.896204 
L 327.365551 82.033752 
L 330.505819 81.951049 
L 333.50743 81.652271 
L 336.218793 81.152508 
L 338.297267 80.551548 
L 339.784913 79.917534 
L 340.883309 79.210849 
L 341.496814 78.550826 
L 341.751885 77.967118 
L 341.783879 77.67258 
L 341.783879 77.67258 
" clip-path="url(#pff08212b51)" style="fill: none; stroke: #7d7d7d; stroke-opacity: 0.75; stroke-width: 0.6; stroke-linecap: square"/>
   </g>
   <g id="line2d_34">
    <path d="M 348.795683 77.67258 
L 348.662468 76.93723 
L 348.26451 76.211194 
L 347.606849 75.503667 
L 346.486803 74.691662 
L 345.025368 73.934001 
L 342.924749 73.137105 
L 340.448054 72.452689 
L 337.656706 71.897725 
L 334.170396 71.439487 
L 330.476585 71.183021 
L 326.694844 71.136629 
L 322.947591 71.301812 
L 319.35613 71.673223 
L 316.036719 72.23884 
L 313.096812 72.980352 
L 310.910881 73.75472 
L 309.142811 74.626251 
L 307.993447 75.43428 
L 307.310221 76.139458 
L 306.886011 76.864054 
L 306.72619 77.598891 
L 306.832783 78.334661 
L 307.204438 79.062045 
L 307.83645 79.771831 
L 308.720812 80.455028 
L 310.099162 81.227614 
L 311.799479 81.93539 
L 314.148458 82.662081 
L 316.835007 83.265033 
L 320.23291 83.783577 
L 323.874481 84.104303 
L 327.641839 84.216827 
L 331.413031 84.117507 
L 335.065979 83.809559 
L 338.482434 83.30295 
L 341.551802 82.614081 
L 343.874331 81.879208 
L 345.797235 81.040011 
L 347.090927 80.253383 
L 348.032216 79.419706 
L 348.534846 78.699981 
L 348.77435 77.967243 
L 348.795683 77.67258 
L 348.795683 77.67258 
" clip-path="url(#pff08212b51)" style="fill: none; stroke: #7d7d7d; stroke-opacity: 0.75; stroke-width: 0.6; stroke-linecap: square"/>
   </g>
   <g id="line2d_35">
    <path d="M 355.807487 77.67258 
L 355.693767 76.887609 
L 355.353529 76.109004 
L 354.789532 75.343078 
L 353.777011 74.41295 
L 352.434968 73.524107 
L 350.780401 72.687807 
L 348.412157 71.768465 
L 345.667424 70.956757 
L 342.596238 70.267479 
L 338.675569 69.634691 
L 334.484202 69.20124 
L 330.126083 68.977877 
L 325.709292 68.970141 
L 321.343365 69.178223 
L 317.136576 69.596963 
L 313.193252 70.215977 
L 309.611187 71.019913 
L 306.896006 71.841185 
L 304.561186 72.768765 
L 302.649291 73.785743 
L 301.404506 74.68818 
L 300.493538 75.628418 
L 300.013011 76.399833 
L 299.757493 77.181569 
L 299.729053 77.967287 
L 299.927925 78.750614 
L 300.352494 79.5252 
L 300.999319 80.284763 
L 302.112236 81.203722 
L 303.550006 82.077957 
L 305.294418 82.896393 
L 307.761114 83.790327 
L 310.5924 84.572732 
L 313.736661 85.229345 
L 317.72379 85.820576 
L 321.959821 86.209739 
L 326.339702 86.387182 
L 330.754812 86.348504 
L 335.095659 86.094666 
L 339.25459 85.631961 
L 343.128464 84.971866 
L 346.62121 84.13075 
L 349.245685 83.281417 
L 351.478475 82.329833 
L 353.010332 81.471205 
L 354.222376 80.564464 
L 355.099257 79.621095 
L 355.551833 78.848046 
L 355.779043 78.065464 
L 355.807487 77.67258 
L 355.807487 77.67258 
" clip-path="url(#pff08212b51)" style="fill: none; stroke: #7d7d7d; stroke-opacity: 0.75; stroke-width: 0.6; stroke-linecap: square"/>
   </g>
   <g id="line2d_36">
    <path d="M 362.819292 77.67258 
L 362.677142 76.691367 
L 362.251844 75.71811 
L 361.546847 74.760703 
L 360.567869 73.826909 
L 359.322847 72.924299 
L 357.408027 71.851014 
L 355.117694 70.851464 
L 352.480857 69.938308 
L 348.906578 68.972761 
L 344.946795 68.165815 
L 340.673697 67.532179 
L 336.165184 67.083405 
L 331.503448 66.827675 
L 326.773472 66.76965 
L 322.061486 66.910389 
L 317.45339 67.247325 
L 313.033192 67.774316 
L 308.881471 68.481756 
L 305.073917 69.356746 
L 301.67994 70.383336 
L 299.212446 71.341207 
L 297.106533 72.37927 
L 295.388873 73.484376 
L 294.309081 74.407351 
L 293.50055 75.356805 
L 292.969839 76.325037 
L 292.721249 77.304197 
L 292.756798 78.286344 
L 293.076197 79.263514 
L 293.676855 80.227783 
L 294.553903 81.171332 
L 295.700227 82.086508 
L 297.49744 83.179301 
L 299.677955 84.202347 
L 302.214155 85.142688 
L 305.073917 85.988414 
L 308.881471 86.863405 
L 313.033192 87.570844 
L 317.45339 88.097835 
L 322.061486 88.434771 
L 326.773472 88.57551 
L 331.503448 88.517485 
L 336.165184 88.261755 
L 340.673697 87.812981 
L 344.946795 87.179346 
L 348.906578 86.372399 
L 352.480857 85.406852 
L 355.117694 84.493697 
L 357.408027 83.494146 
L 359.322847 82.420861 
L 360.837902 81.287435 
L 361.749044 80.347019 
L 362.384564 79.384915 
L 362.739309 78.408926 
L 362.819292 77.67258 
L 362.819292 77.67258 
" clip-path="url(#pff08212b51)" style="fill: none; stroke: #7d7d7d; stroke-opacity: 0.75; stroke-width: 0.6; stroke-linecap: square"/>
   </g>
   <g id="line2d_37">
    <path d="M 369.831096 77.67258 
L 369.735116 76.788965 
L 369.447615 75.909382 
L 368.969904 75.037844 
L 368.040965 73.895173 
L 366.785382 72.783134 
L 365.213337 71.710745 
L 363.337578 70.686701 
L 360.589179 69.48724 
L 357.424975 68.391454 
L 353.885044 67.41322 
L 350.014223 66.564929 
L 345.861537 65.857325 
L 340.580523 65.206394 
L 335.065792 64.782725 
L 329.41788 64.594042 
L 323.739749 64.643784 
L 318.134913 64.931044 
L 312.705549 65.450586 
L 307.550638 66.192938 
L 303.532518 66.97212 
L 299.821261 67.886831 
L 296.463874 68.925487 
L 293.502881 70.074932 
L 290.975785 71.320608 
L 289.288219 72.375867 
L 287.91263 73.474078 
L 286.860173 74.606336 
L 286.139382 75.763459 
L 285.820065 76.641979 
L 285.692111 77.525202 
L 285.756104 78.409097 
L 286.011753 79.289632 
L 286.45789 80.162788 
L 287.345414 81.30864 
L 288.560669 82.425007 
L 290.093802 83.502836 
L 291.932379 84.533386 
L 294.061492 85.5083 
L 297.104932 86.636709 
L 300.536646 87.651581 
L 304.313169 88.540061 
L 308.386668 89.290895 
L 313.594005 89.996945 
L 319.059596 90.478318 
L 324.683803 90.726239 
L 330.364095 90.736189 
L 335.996918 90.507986 
L 341.479585 90.045789 
L 346.712145 89.358026 
L 351.599208 88.457234 
L 355.343335 87.555582 
L 358.7381 86.528753 
L 361.740507 85.389753 
L 364.312527 84.15301 
L 366.03818 83.103729 
L 367.453429 82.010406 
L 368.546799 80.881906 
L 369.309423 79.727382 
L 369.660516 78.850036 
L 369.820428 77.967318 
L 369.831096 77.67258 
L 369.831096 77.67258 
" clip-path="url(#pff08212b51)" style="fill: none; stroke: #7d7d7d; stroke-opacity: 0.75; stroke-width: 0.6; stroke-linecap: square"/>
   </g>
   <g id="line2d_38">
    <path d="M 376.842901 77.67258 
L 376.730924 76.641696 
L 376.395506 75.615516 
L 375.838176 74.598721 
L 375.061478 73.595952 
L 374.068955 72.611784 
L 372.417831 71.33624 
L 370.40457 70.112079 
L 368.045499 68.949228 
L 365.359746 67.857116 
L 362.369093 66.844599 
L 358.239174 65.703326 
L 353.723215 64.713653 
L 348.878415 63.888116 
L 343.766137 63.237169 
L 338.451132 62.769059 
L 333.000719 62.489713 
L 327.483931 62.40267 
L 321.970644 62.509033 
L 316.530686 62.807455 
L 311.232961 63.294154 
L 306.144566 63.962969 
L 301.329952 64.805426 
L 296.850099 65.810856 
L 292.761747 66.966524 
L 289.11668 68.257792 
L 286.551019 69.377502 
L 284.319532 70.564478 
L 282.440314 71.809095 
L 280.928605 73.10126 
L 280.04349 74.095296 
L 279.376095 75.105654 
L 278.929466 76.127724 
L 278.705641 77.156844 
L 278.705641 78.188316 
L 278.929466 79.217436 
L 279.376095 80.239506 
L 280.04349 81.249865 
L 280.928605 82.2439 
L 282.440314 83.536065 
L 284.319532 84.780682 
L 286.551019 85.967658 
L 289.11668 87.087368 
L 291.995709 88.130731 
L 295.999376 89.314748 
L 300.405319 90.351308 
L 305.157735 91.227281 
L 310.196429 91.931574 
L 315.457584 92.455265 
L 320.874562 92.791721 
L 326.378753 92.936682 
L 331.900442 92.888311 
L 337.369692 92.64722 
L 342.717232 92.216464 
L 347.875329 91.601497 
L 352.778654 90.810111 
L 357.365101 89.852326 
L 361.576579 88.740276 
L 365.359746 87.488044 
L 368.045499 86.395932 
L 370.40457 85.233081 
L 372.417831 84.00892 
L 374.068955 82.733377 
L 375.344553 81.416794 
L 376.048473 80.408838 
L 376.532065 79.388397 
L 376.793123 78.360127 
L 376.842901 77.67258 
L 376.842901 77.67258 
" clip-path="url(#pff08212b51)" style="fill: none; stroke: #7d7d7d; stroke-opacity: 0.75; stroke-width: 0.6; stroke-linecap: square"/>
   </g>
   <g id="line2d_39">
    <path d="M 383.854705 77.67258 
L 383.726732 76.494427 
L 383.343397 75.321649 
L 382.706449 74.159598 
L 381.818793 73.013577 
L 380.684482 71.888813 
L 379.308689 70.790439 
L 377.109667 69.375633 
L 374.510461 68.028109 
L 371.532148 66.758794 
L 368.198881 65.577981 
L 364.53769 64.495245 
L 360.578263 63.519367 
L 355.25871 62.461755 
L 349.590867 61.596801 
L 343.646523 60.93546 
L 337.500966 60.486107 
L 331.232036 60.254435 
L 324.919133 60.243377 
L 318.642216 60.453074 
L 312.480786 60.88087 
L 306.512882 61.521346 
L 300.814094 62.36639 
L 295.4566 63.405299 
L 290.508258 64.624915 
L 286.886486 65.720408 
L 283.596167 66.912823 
L 280.663983 68.192491 
L 278.113713 69.549035 
L 275.966035 70.971454 
L 274.630083 72.074578 
L 273.536551 73.203244 
L 272.69043 74.352303 
L 272.09558 75.516511 
L 271.754715 76.690557 
L 271.669391 77.869084 
L 271.839996 79.046715 
L 272.265753 80.218075 
L 272.944719 81.377821 
L 273.873795 82.52066 
L 275.048743 83.64138 
L 276.464202 84.734864 
L 278.71429 86.141877 
L 281.362102 87.48021 
L 284.386166 88.739012 
L 287.761958 89.908073 
L 291.462105 90.977915 
L 295.4566 91.939861 
L 300.814094 92.97877 
L 306.512882 93.823814 
L 312.480786 94.46429 
L 318.642216 94.892086 
L 324.919133 95.101783 
L 331.232036 95.090725 
L 337.500966 94.859053 
L 343.646523 94.4097 
L 349.590867 93.748359 
L 355.25871 92.883405 
L 360.578263 91.825794 
L 365.48215 90.588921 
L 369.064044 89.48081 
L 372.310997 88.276944 
L 375.196681 86.987086 
L 377.697693 85.621694 
L 379.793753 84.191841 
L 381.089695 83.084107 
L 382.142308 81.951682 
L 382.946788 80.799732 
L 383.499465 79.633513 
L 383.797816 78.458348 
L 383.854705 77.67258 
L 383.854705 77.67258 
" clip-path="url(#pff08212b51)" style="fill: none; stroke: #7d7d7d; stroke-opacity: 0.75; stroke-width: 0.6; stroke-linecap: square"/>
   </g>
   <g id="line2d_40">
    <path d="M 327.76027 77.67258 
L 390.866509 77.67258 
" clip-path="url(#pff08212b51)" style="fill: none; stroke: #7d7d7d; stroke-opacity: 0.7; stroke-width: 0.55; stroke-linecap: square"/>
   </g>
   <g id="line2d_41">
    <path d="M 327.76027 77.67258 
L 386.062833 70.159336 
" clip-path="url(#pff08212b51)" style="fill: none; stroke: #7d7d7d; stroke-opacity: 0.7; stroke-width: 0.55; stroke-linecap: square"/>
   </g>
   <g id="line2d_42">
    <path d="M 327.76027 77.67258 
L 372.38312 63.789916 
" clip-path="url(#pff08212b51)" style="fill: none; stroke: #7d7d7d; stroke-opacity: 0.7; stroke-width: 0.55; stroke-linecap: square"/>
   </g>
   <g id="line2d_43">
    <path d="M 327.76027 77.67258 
L 351.909982 59.534005 
" clip-path="url(#pff08212b51)" style="fill: none; stroke: #7d7d7d; stroke-opacity: 0.7; stroke-width: 0.55; stroke-linecap: square"/>
   </g>
   <g id="line2d_44">
    <path d="M 327.76027 77.67258 
L 327.76027 58.039528 
" clip-path="url(#pff08212b51)" style="fill: none; stroke: #7d7d7d; stroke-opacity: 0.7; stroke-width: 0.55; stroke-linecap: square"/>
   </g>
   <g id="line2d_45">
    <path d="M 327.76027 77.67258 
L 303.610557 59.534005 
" clip-path="url(#pff08212b51)" style="fill: none; stroke: #7d7d7d; stroke-opacity: 0.7; stroke-width: 0.55; stroke-linecap: square"/>
   </g>
   <g id="line2d_46">
    <path d="M 327.76027 77.67258 
L 283.13742 63.789916 
" clip-path="url(#pff08212b51)" style="fill: none; stroke: #7d7d7d; stroke-opacity: 0.7; stroke-width: 0.55; stroke-linecap: square"/>
   </g>
   <g id="line2d_47">
    <path d="M 327.76027 77.67258 
L 269.457707 70.159336 
" clip-path="url(#pff08212b51)" style="fill: none; stroke: #7d7d7d; stroke-opacity: 0.7; stroke-width: 0.55; stroke-linecap: square"/>
   </g>
   <g id="line2d_48">
    <path d="M 327.76027 77.67258 
L 264.65403 77.67258 
" clip-path="url(#pff08212b51)" style="fill: none; stroke: #7d7d7d; stroke-opacity: 0.7; stroke-width: 0.55; stroke-linecap: square"/>
   </g>
   <g id="line2d_49">
    <path d="M 327.76027 77.67258 
L 269.457707 85.185824 
" clip-path="url(#pff08212b51)" style="fill: none; stroke: #7d7d7d; stroke-opacity: 0.7; stroke-width: 0.55; stroke-linecap: square"/>
   </g>
   <g id="line2d_50">
    <path d="M 327.76027 77.67258 
L 283.13742 91.555245 
" clip-path="url(#pff08212b51)" style="fill: none; stroke: #7d7d7d; stroke-opacity: 0.7; stroke-width: 0.55; stroke-linecap: square"/>
   </g>
   <g id="line2d_51">
    <path d="M 327.76027 77.67258 
L 303.610557 95.811155 
" clip-path="url(#pff08212b51)" style="fill: none; stroke: #7d7d7d; stroke-opacity: 0.7; stroke-width: 0.55; stroke-linecap: square"/>
   </g>
   <g id="line2d_52">
    <path d="M 327.76027 77.67258 
L 327.76027 97.305632 
" clip-path="url(#pff08212b51)" style="fill: none; stroke: #7d7d7d; stroke-opacity: 0.7; stroke-width: 0.55; stroke-linecap: square"/>
   </g>
   <g id="line2d_53">
    <path d="M 327.76027 77.67258 
L 351.909982 95.811155 
" clip-path="url(#pff08212b51)" style="fill: none; stroke: #7d7d7d; stroke-opacity: 0.7; stroke-width: 0.55; stroke-linecap: square"/>
   </g>
   <g id="line2d_54">
    <path d="M 327.76027 77.67258 
L 372.38312 91.555245 
" clip-path="url(#pff08212b51)" style="fill: none; stroke: #7d7d7d; stroke-opacity: 0.7; stroke-width: 0.55; stroke-linecap: square"/>
   </g>
   <g id="line2d_55">
    <path d="M 327.76027 77.67258 
L 386.062833 85.185824 
" clip-path="url(#pff08212b51)" style="fill: none; stroke: #7d7d7d; stroke-opacity: 0.7; stroke-width: 0.55; stroke-linecap: square"/>
   </g>
   <g id="line2d_56">
    <path d="M 265.866599 81.502799 
L 265.866599 130.001112 
" clip-path="url(#pff08212b51)" style="fill: none; stroke: #2b2b2b; stroke-width: 0.95; stroke-linecap: square"/>
   </g>
   <g id="line2d_57">
    <path d="M 286.497823 80.226059 
L 265.866599 81.502799 
" clip-path="url(#pff08212b51)" style="fill: none; stroke: #2b2b2b; stroke-opacity: 0.85; stroke-width: 0.8; stroke-linecap: square"/>
   </g>
   <g id="line2d_58">
    <path d="M 292.700322 93.996866 
L 292.700322 142.49518 
" clip-path="url(#pff08212b51)" style="fill: none; stroke: #2b2b2b; stroke-width: 0.95; stroke-linecap: square"/>
   </g>
   <g id="line2d_59">
    <path d="M 304.386971 88.555438 
L 292.700322 93.996866 
" clip-path="url(#pff08212b51)" style="fill: none; stroke: #2b2b2b; stroke-opacity: 0.85; stroke-width: 0.8; stroke-linecap: square"/>
   </g>
   <g id="line2d_60">
    <path d="M 21.666388 190.607556 
L 22.104162 190.94705 
L 22.577207 191.282375 
L 23.085067 191.613211 
L 23.62726 191.939241 
L 24.203264 192.260153 
L 24.81253 192.575641 
L 25.454475 192.885402 
L 26.128484 193.189141 
L 26.833913 193.486566 
L 27.570087 193.777394 
L 28.336302 194.061345 
L 29.131825 194.338149 
L 29.955894 194.60754 
L 30.807723 194.869261 
L 31.686495 195.123062 
L 32.59137 195.3687 
L 33.521482 195.605939 
L 34.475943 195.834553 
L 35.453838 196.054323 
L 36.454233 196.265039 
L 37.47617 196.4665 
L 38.518672 196.658512 
L 39.580742 196.840892 
L 40.661363 197.013465 
L 41.759502 197.176067 
L 42.874109 197.328542 
L 44.004117 197.470744 
L 45.148445 197.602537 
L 46.305999 197.723794 
L 47.475671 197.834401 
L 48.656343 197.934251 
L 49.846885 198.023248 
L 51.046158 198.101308 
L 52.253015 198.168355 
L 53.466302 198.224327 
L 54.684858 198.269168 
L 55.907517 198.302837 
L 57.13311 198.325301 
L 58.360464 198.336538 
L 59.588406 198.336538 
L 60.81576 198.325301 
L 62.041353 198.302837 
L 63.264012 198.269168 
L 64.482568 198.224327 
L 65.695855 198.168355 
L 66.902712 198.101308 
L 68.101985 198.023248 
L 69.292527 197.934251 
L 70.473199 197.834401 
L 71.642871 197.723794 
L 72.800425 197.602537 
L 73.944753 197.470744 
L 75.074761 197.328542 
L 76.189368 197.176067 
L 77.287507 197.013465 
L 78.368128 196.840892 
L 79.430198 196.658512 
L 80.4727 196.4665 
L 81.494637 196.265039 
L 82.495032 196.054323 
L 83.472927 195.834553 
L 84.427388 195.605939 
L 85.3575 195.3687 
L 86.262376 195.123062 
L 87.141148 194.869261 
L 87.992976 194.60754 
L 88.817045 194.338149 
L 89.612568 194.061345 
L 90.378783 193.777394 
L 91.114957 193.486566 
L 91.820386 193.189141 
L 92.494395 192.885402 
L 93.13634 192.575641 
L 93.745606 192.260153 
L 94.321611 191.939241 
L 94.863803 191.613211 
L 95.371664 191.282375 
L 95.844708 190.94705 
L 96.282482 190.607556 
" clip-path="url(#pff08212b51)" style="fill: none; stroke: #7d7d7d; stroke-opacity: 0.75; stroke-width: 0.5; stroke-linecap: square"/>
   </g>
   <g id="line2d_61">
    <path d="M 14.052501 191.508205 
L 14.579617 191.923792 
L 15.149201 192.334277 
L 15.760707 192.739265 
L 16.41355 193.138371 
L 17.107107 193.531212 
L 17.840713 193.917413 
L 18.613666 194.296603 
L 19.425229 194.668421 
L 20.274623 195.032511 
L 21.161036 195.388524 
L 22.083622 195.736119 
L 23.041496 196.074965 
L 24.033743 196.404738 
L 25.059414 196.72512 
L 26.117527 197.035808 
L 27.207071 197.336502 
L 28.327002 197.626915 
L 29.476251 197.90677 
L 30.653717 198.175799 
L 31.858273 198.433745 
L 33.088769 198.68036 
L 34.344027 198.91541 
L 35.622845 199.138668 
L 36.924001 199.349922 
L 38.24625 199.548969 
L 39.588328 199.735619 
L 40.94895 199.909694 
L 42.326814 200.071026 
L 43.720604 200.219462 
L 45.128985 200.35486 
L 46.55061 200.47709 
L 47.98412 200.586035 
L 49.428143 200.681591 
L 50.881297 200.763667 
L 52.342193 200.832183 
L 53.809434 200.887075 
L 55.281616 200.92829 
L 56.757329 200.955789 
L 58.235164 200.969545 
L 59.713706 200.969545 
L 61.191541 200.955789 
L 62.667255 200.92829 
L 64.139436 200.887075 
L 65.606677 200.832183 
L 67.067573 200.763667 
L 68.520728 200.681591 
L 69.96475 200.586035 
L 71.39826 200.47709 
L 72.819885 200.35486 
L 74.228266 200.219462 
L 75.622056 200.071026 
L 76.99992 199.909694 
L 78.360542 199.735619 
L 79.70262 199.548969 
L 81.024869 199.349922 
L 82.326025 199.138668 
L 83.604843 198.91541 
L 84.860101 198.68036 
L 86.090597 198.433745 
L 87.295154 198.175799 
L 88.472619 197.90677 
L 89.621868 197.626915 
L 90.741799 197.336502 
L 91.831343 197.035808 
L 92.889456 196.72512 
L 93.915127 196.404738 
L 94.907374 196.074965 
L 95.865248 195.736119 
L 96.787834 195.388524 
L 97.674247 195.032511 
L 98.523642 194.668421 
L 99.335204 194.296603 
L 100.108157 193.917413 
L 100.841763 193.531212 
L 101.53532 193.138371 
L 102.188163 192.739265 
L 102.799669 192.334277 
L 103.369253 191.923792 
L 103.89637 191.508205 
" clip-path="url(#pff08212b51)" style="fill: none; stroke: #7d7d7d; stroke-opacity: 0.75; stroke-width: 0.5; stroke-linecap: square"/>
   </g>
   <g id="line2d_62">
    <path d="M 40.849497 194.056129 
L 26.907237 200.527402 
" clip-path="url(#pff08212b51)" style="fill: none; stroke: #7d7d7d; stroke-opacity: 0.75; stroke-width: 0.5; stroke-linecap: square"/>
   </g>
   <g id="line2d_63">
    <path d="M 26.907237 200.527402 
L 26.907237 244.281062 
" clip-path="url(#pff08212b51)" style="fill: none; stroke: #7d7d7d; stroke-opacity: 0.6; stroke-width: 0.45; stroke-linecap: square"/>
   </g>
   <g id="line2d_64">
    <path d="M 58.974435 195.704621 
L 58.974435 203.604587 
" clip-path="url(#pff08212b51)" style="fill: none; stroke: #7d7d7d; stroke-opacity: 0.75; stroke-width: 0.5; stroke-linecap: square"/>
   </g>
   <g id="line2d_65">
    <path d="M 58.974435 203.604587 
L 58.974435 247.358246 
" clip-path="url(#pff08212b51)" style="fill: none; stroke: #7d7d7d; stroke-opacity: 0.6; stroke-width: 0.45; stroke-linecap: square"/>
   </g>
   <g id="line2d_66">
    <path d="M 77.099373 194.056129 
L 91.041633 200.527402 
" clip-path="url(#pff08212b51)" style="fill: none; stroke: #7d7d7d; stroke-opacity: 0.75; stroke-width: 0.5; stroke-linecap: square"/>
   </g>
   <g id="line2d_67">
    <path d="M 91.041633 200.527402 
L 91.041633 244.281062 
" clip-path="url(#pff08212b51)" style="fill: none; stroke: #7d7d7d; stroke-opacity: 0.6; stroke-width: 0.45; stroke-linecap: square"/>
   </g>
   <g id="line2d_68">
    <path d="M 6.438613 206.993407 
L 7.055072 207.485088 
L 7.721195 207.970732 
L 8.436346 208.449873 
L 9.199841 208.922055 
L 10.010949 209.386824 
L 10.868895 209.843738 
L 11.772858 210.292358 
L 12.721973 210.732255 
L 13.715333 211.163009 
L 14.751986 211.584207 
L 15.830941 211.995447 
L 16.951167 212.396335 
L 18.111592 212.786488 
L 19.311105 213.165533 
L 20.54856 213.533106 
L 21.822772 213.888857 
L 23.132522 214.232445 
L 24.476559 214.563541 
L 25.853595 214.881829 
L 27.262314 215.187004 
L 28.701368 215.478774 
L 30.169381 215.756861 
L 31.664949 216.020997 
L 33.18664 216.270931 
L 34.732999 216.506424 
L 36.302547 216.727249 
L 37.893783 216.933197 
L 39.505184 217.124069 
L 41.135209 217.299684 
L 42.782298 217.459873 
L 44.444877 217.604483 
L 46.121354 217.733375 
L 47.810127 217.846427 
L 49.509579 217.943531 
L 51.218085 218.024593 
L 52.93401 218.089536 
L 54.655714 218.138297 
L 56.381549 218.170831 
L 58.109864 218.187105 
L 59.839006 218.187105 
L 61.567321 218.170831 
L 63.293156 218.138297 
L 65.01486 218.089536 
L 66.730785 218.024593 
L 68.439291 217.943531 
L 70.138743 217.846427 
L 71.827516 217.733375 
L 73.503993 217.604483 
L 75.166572 217.459873 
L 76.813662 217.299684 
L 78.443686 217.124069 
L 80.055087 216.933197 
L 81.646323 216.727249 
L 83.215871 216.506424 
L 84.762231 216.270931 
L 86.283922 216.020997 
L 87.779489 215.756861 
L 89.247502 215.478774 
L 90.686556 215.187004 
L 92.095275 214.881829 
L 93.472312 214.563541 
L 94.816348 214.232445 
L 96.126098 213.888857 
L 97.40031 213.533106 
L 98.637765 213.165533 
L 99.837278 212.786488 
L 100.997703 212.396335 
L 102.117929 211.995447 
L 103.196884 211.584207 
L 104.233538 211.163009 
L 105.226897 210.732255 
L 106.176012 210.292358 
L 107.079975 209.843738 
L 107.937921 209.386824 
L 108.749029 208.922055 
L 109.512524 208.449873 
L 110.227675 207.970732 
L 110.893799 207.485088 
L 111.510257 206.993407 
" clip-path="url(#pff08212b51)" style="fill: none; stroke: #7d7d7d; stroke-opacity: 0.55; stroke-width: 0.45; stroke-linecap: square"/>
   </g>
   <g id="line2d_69">
    <path d="M 6.438613 221.577961 
L 7.055072 222.069641 
L 7.721195 222.555285 
L 8.436346 223.034426 
L 9.199841 223.506608 
L 10.010949 223.971378 
L 10.868895 224.428291 
L 11.772858 224.876911 
L 12.721973 225.316808 
L 13.715333 225.747562 
L 14.751986 226.16876 
L 15.830941 226.58 
L 16.951167 226.980888 
L 18.111592 227.371041 
L 19.311105 227.750086 
L 20.54856 228.117659 
L 21.822772 228.47341 
L 23.132522 228.816998 
L 24.476559 229.148094 
L 25.853595 229.466382 
L 27.262314 229.771557 
L 28.701368 230.063327 
L 30.169381 230.341414 
L 31.664949 230.60555 
L 33.18664 230.855484 
L 34.732999 231.090977 
L 36.302547 231.311802 
L 37.893783 231.51775 
L 39.505184 231.708622 
L 41.135209 231.884237 
L 42.782298 232.044426 
L 44.444877 232.189036 
L 46.121354 232.317928 
L 47.810127 232.430981 
L 49.509579 232.528084 
L 51.218085 232.609146 
L 52.93401 232.674089 
L 54.655714 232.72285 
L 56.381549 232.755384 
L 58.109864 232.771658 
L 59.839006 232.771658 
L 61.567321 232.755384 
L 63.293156 232.72285 
L 65.01486 232.674089 
L 66.730785 232.609146 
L 68.439291 232.528084 
L 70.138743 232.430981 
L 71.827516 232.317928 
L 73.503993 232.189036 
L 75.166572 232.044426 
L 76.813662 231.884237 
L 78.443686 231.708622 
L 80.055087 231.51775 
L 81.646323 231.311802 
L 83.215871 231.090977 
L 84.762231 230.855484 
L 86.283922 230.60555 
L 87.779489 230.341414 
L 89.247502 230.063327 
L 90.686556 229.771557 
L 92.095275 229.466382 
L 93.472312 229.148094 
L 94.816348 228.816998 
L 96.126098 228.47341 
L 97.40031 228.117659 
L 98.637765 227.750086 
L 99.837278 227.371041 
L 100.997703 226.980888 
L 102.117929 226.58 
L 103.196884 226.16876 
L 104.233538 225.747562 
L 105.226897 225.316808 
L 106.176012 224.876911 
L 107.079975 224.428291 
L 107.937921 223.971378 
L 108.749029 223.506608 
L 109.512524 223.034426 
L 110.227675 222.555285 
L 110.893799 222.069641 
L 111.510257 221.577961 
" clip-path="url(#pff08212b51)" style="fill: none; stroke: #7d7d7d; stroke-opacity: 0.55; stroke-width: 0.45; stroke-linecap: square"/>
   </g>
   <g id="line2d_70">
    <path d="M 29.280275 189.706907 
L 29.280275 233.460566 
" clip-path="url(#pff08212b51)" style="fill: none; stroke: #7d7d7d; stroke-opacity: 0.55; stroke-width: 0.45; stroke-linecap: square"/>
   </g>
   <g id="line2d_71">
    <path d="M 6.438613 192.408854 
L 6.438613 236.162514 
" clip-path="url(#pff08212b51)" style="fill: none; stroke: #7d7d7d; stroke-opacity: 0.55; stroke-width: 0.45; stroke-linecap: square"/>
   </g>
   <g id="line2d_72">
    <path d="M 88.668595 189.706907 
L 88.668595 233.460566 
" clip-path="url(#pff08212b51)" style="fill: none; stroke: #7d7d7d; stroke-opacity: 0.55; stroke-width: 0.45; stroke-linecap: square"/>
   </g>
   <g id="line2d_73">
    <path d="M 111.510257 192.408854 
L 111.510257 236.162514 
" clip-path="url(#pff08212b51)" style="fill: none; stroke: #7d7d7d; stroke-opacity: 0.55; stroke-width: 0.45; stroke-linecap: square"/>
   </g>
   <g id="line2d_74">
    <path d="M 161.902476 190.607556 
L 162.34025 190.94705 
L 162.813294 191.282375 
L 163.321155 191.613211 
L 163.863347 191.939241 
L 164.439352 192.260153 
L 165.048618 192.575641 
L 165.690562 192.885402 
L 166.364572 193.189141 
L 167.070001 193.486566 
L 167.806175 193.777394 
L 168.57239 194.061345 
L 169.367912 194.338149 
L 170.191982 194.60754 
L 171.04381 194.869261 
L 171.922582 195.123062 
L 172.827457 195.3687 
L 173.75757 195.605939 
L 174.712031 195.834553 
L 175.689926 196.054323 
L 176.690321 196.265039 
L 177.712258 196.4665 
L 178.75476 196.658512 
L 179.816829 196.840892 
L 180.897451 197.013465 
L 181.99559 197.176067 
L 183.110196 197.328542 
L 184.240204 197.470744 
L 185.384533 197.602537 
L 186.542087 197.723794 
L 187.711759 197.834401 
L 188.892431 197.934251 
L 190.082973 198.023248 
L 191.282246 198.101308 
L 192.489103 198.168355 
L 193.70239 198.224327 
L 194.920946 198.269168 
L 196.143605 198.302837 
L 197.369198 198.325301 
L 198.596552 198.336538 
L 199.824494 198.336538 
L 201.051848 198.325301 
L 202.277441 198.302837 
L 203.5001 198.269168 
L 204.718656 198.224327 
L 205.931942 198.168355 
L 207.1388 198.101308 
L 208.338073 198.023248 
L 209.528615 197.934251 
L 210.709287 197.834401 
L 211.878959 197.723794 
L 213.036513 197.602537 
L 214.180841 197.470744 
L 215.310849 197.328542 
L 216.425456 197.176067 
L 217.523595 197.013465 
L 218.604216 196.840892 
L 219.666286 196.658512 
L 220.708788 196.4665 
L 221.730725 196.265039 
L 222.731119 196.054323 
L 223.709015 195.834553 
L 224.663475 195.605939 
L 225.593588 195.3687 
L 226.498463 195.123062 
L 227.377235 194.869261 
L 228.229063 194.60754 
L 229.053133 194.338149 
L 229.848656 194.061345 
L 230.614871 193.777394 
L 231.351045 193.486566 
L 232.056474 193.189141 
L 232.730483 192.885402 
L 233.372428 192.575641 
L 233.981694 192.260153 
L 234.557698 191.939241 
L 235.09989 191.613211 
L 235.607751 191.282375 
L 236.080795 190.94705 
L 236.51857 190.607556 
" clip-path="url(#pff08212b51)" style="fill: none; stroke: #7d7d7d; stroke-opacity: 0.75; stroke-width: 0.5; stroke-linecap: square"/>
   </g>
   <g id="line2d_75">
    <path d="M 154.288588 191.508205 
L 154.815705 191.923792 
L 155.385288 192.334277 
L 155.996794 192.739265 
L 156.649638 193.138371 
L 157.343194 193.531212 
L 158.0768 193.917413 
L 158.849754 194.296603 
L 159.661316 194.668421 
L 160.51071 195.032511 
L 161.397124 195.388524 
L 162.319709 195.736119 
L 163.277584 196.074965 
L 164.269831 196.404738 
L 165.295502 196.72512 
L 166.353615 197.035808 
L 167.443158 197.336502 
L 168.56309 197.626915 
L 169.712338 197.90677 
L 170.889804 198.175799 
L 172.094361 198.433745 
L 173.324857 198.68036 
L 174.580114 198.91541 
L 175.858933 199.138668 
L 177.160089 199.349922 
L 178.482338 199.548969 
L 179.824416 199.735619 
L 181.185037 199.909694 
L 182.562902 200.071026 
L 183.956691 200.219462 
L 185.365072 200.35486 
L 186.786698 200.47709 
L 188.220207 200.586035 
L 189.66423 200.681591 
L 191.117385 200.763667 
L 192.578281 200.832183 
L 194.045522 200.887075 
L 195.517703 200.92829 
L 196.993417 200.955789 
L 198.471252 200.969545 
L 199.949794 200.969545 
L 201.427628 200.955789 
L 202.903342 200.92829 
L 204.375524 200.887075 
L 205.842764 200.832183 
L 207.303661 200.763667 
L 208.756815 200.681591 
L 210.200838 200.586035 
L 211.634348 200.47709 
L 213.055973 200.35486 
L 214.464354 200.219462 
L 215.858144 200.071026 
L 217.236008 199.909694 
L 218.59663 199.735619 
L 219.938707 199.548969 
L 221.260957 199.349922 
L 222.562113 199.138668 
L 223.840931 198.91541 
L 225.096189 198.68036 
L 226.326684 198.433745 
L 227.531241 198.175799 
L 228.708707 197.90677 
L 229.857955 197.626915 
L 230.977887 197.336502 
L 232.067431 197.035808 
L 233.125544 196.72512 
L 234.151215 196.404738 
L 235.143462 196.074965 
L 236.101336 195.736119 
L 237.023921 195.388524 
L 237.910335 195.032511 
L 238.759729 194.668421 
L 239.571291 194.296603 
L 240.344245 193.917413 
L 241.077851 193.531212 
L 241.771408 193.138371 
L 242.424251 192.739265 
L 243.035757 192.334277 
L 243.605341 191.923792 
L 244.132457 191.508205 
" clip-path="url(#pff08212b51)" style="fill: none; stroke: #7d7d7d; stroke-opacity: 0.75; stroke-width: 0.5; stroke-linecap: square"/>
   </g>
   <g id="line2d_76">
    <path d="M 181.085585 194.056129 
L 167.143325 200.527402 
" clip-path="url(#pff08212b51)" style="fill: none; stroke: #7d7d7d; stroke-opacity: 0.75; stroke-width: 0.5; stroke-linecap: square"/>
   </g>
   <g id="line2d_77">
    <path d="M 167.143325 200.527402 
L 167.143325 244.281062 
" clip-path="url(#pff08212b51)" style="fill: none; stroke: #7d7d7d; stroke-opacity: 0.6; stroke-width: 0.45; stroke-linecap: square"/>
   </g>
   <g id="line2d_78">
    <path d="M 199.210523 195.704621 
L 199.210523 203.604587 
" clip-path="url(#pff08212b51)" style="fill: none; stroke: #7d7d7d; stroke-opacity: 0.75; stroke-width: 0.5; stroke-linecap: square"/>
   </g>
   <g id="line2d_79">
    <path d="M 199.210523 203.604587 
L 199.210523 247.358246 
" clip-path="url(#pff08212b51)" style="fill: none; stroke: #7d7d7d; stroke-opacity: 0.6; stroke-width: 0.45; stroke-linecap: square"/>
   </g>
   <g id="line2d_80">
    <path d="M 217.335461 194.056129 
L 231.277721 200.527402 
" clip-path="url(#pff08212b51)" style="fill: none; stroke: #7d7d7d; stroke-opacity: 0.75; stroke-width: 0.5; stroke-linecap: square"/>
   </g>
   <g id="line2d_81">
    <path d="M 231.277721 200.527402 
L 231.277721 244.281062 
" clip-path="url(#pff08212b51)" style="fill: none; stroke: #7d7d7d; stroke-opacity: 0.6; stroke-width: 0.45; stroke-linecap: square"/>
   </g>
   <g id="line2d_82">
    <path d="M 146.674701 206.993407 
L 147.291159 207.485088 
L 147.957283 207.970732 
L 148.672434 208.449873 
L 149.435929 208.922055 
L 150.247037 209.386824 
L 151.104983 209.843738 
L 152.008946 210.292358 
L 152.958061 210.732255 
L 153.95142 211.163009 
L 154.988073 211.584207 
L 156.067029 211.995447 
L 157.187255 212.396335 
L 158.34768 212.786488 
L 159.547193 213.165533 
L 160.784647 213.533106 
L 162.058859 213.888857 
L 163.36861 214.232445 
L 164.712646 214.563541 
L 166.089683 214.881829 
L 167.498402 215.187004 
L 168.937456 215.478774 
L 170.405469 215.756861 
L 171.901036 216.020997 
L 173.422727 216.270931 
L 174.969087 216.506424 
L 176.538635 216.727249 
L 178.12987 216.933197 
L 179.741271 217.124069 
L 181.371296 217.299684 
L 183.018386 217.459873 
L 184.680965 217.604483 
L 186.357442 217.733375 
L 188.046215 217.846427 
L 189.745667 217.943531 
L 191.454172 218.024593 
L 193.170098 218.089536 
L 194.891802 218.138297 
L 196.617636 218.170831 
L 198.345952 218.187105 
L 200.075094 218.187105 
L 201.803409 218.170831 
L 203.529244 218.138297 
L 205.250948 218.089536 
L 206.966873 218.024593 
L 208.675379 217.943531 
L 210.374831 217.846427 
L 212.063603 217.733375 
L 213.740081 217.604483 
L 215.40266 217.459873 
L 217.049749 217.299684 
L 218.679774 217.124069 
L 220.291175 216.933197 
L 221.882411 216.727249 
L 223.451959 216.506424 
L 224.998318 216.270931 
L 226.520009 216.020997 
L 228.015577 215.756861 
L 229.48359 215.478774 
L 230.922644 215.187004 
L 232.331363 214.881829 
L 233.708399 214.563541 
L 235.052436 214.232445 
L 236.362186 213.888857 
L 237.636398 213.533106 
L 238.873853 213.165533 
L 240.073366 212.786488 
L 241.23379 212.396335 
L 242.354016 211.995447 
L 243.432972 211.584207 
L 244.469625 211.163009 
L 245.462985 210.732255 
L 246.4121 210.292358 
L 247.316062 209.843738 
L 248.174008 209.386824 
L 248.985117 208.922055 
L 249.748612 208.449873 
L 250.463763 207.970732 
L 251.129886 207.485088 
L 251.746344 206.993407 
" clip-path="url(#pff08212b51)" style="fill: none; stroke: #7d7d7d; stroke-opacity: 0.55; stroke-width: 0.45; stroke-linecap: square"/>
   </g>
   <g id="line2d_83">
    <path d="M 146.674701 221.577961 
L 147.291159 222.069641 
L 147.957283 222.555285 
L 148.672434 223.034426 
L 149.435929 223.506608 
L 150.247037 223.971378 
L 151.104983 224.428291 
L 152.008946 224.876911 
L 152.958061 225.316808 
L 153.95142 225.747562 
L 154.988073 226.16876 
L 156.067029 226.58 
L 157.187255 226.980888 
L 158.34768 227.371041 
L 159.547193 227.750086 
L 160.784647 228.117659 
L 162.058859 228.47341 
L 163.36861 228.816998 
L 164.712646 229.148094 
L 166.089683 229.466382 
L 167.498402 229.771557 
L 168.937456 230.063327 
L 170.405469 230.341414 
L 171.901036 230.60555 
L 173.422727 230.855484 
L 174.969087 231.090977 
L 176.538635 231.311802 
L 178.12987 231.51775 
L 179.741271 231.708622 
L 181.371296 231.884237 
L 183.018386 232.044426 
L 184.680965 232.189036 
L 186.357442 232.317928 
L 188.046215 232.430981 
L 189.745667 232.528084 
L 191.454172 232.609146 
L 193.170098 232.674089 
L 194.891802 232.72285 
L 196.617636 232.755384 
L 198.345952 232.771658 
L 200.075094 232.771658 
L 201.803409 232.755384 
L 203.529244 232.72285 
L 205.250948 232.674089 
L 206.966873 232.609146 
L 208.675379 232.528084 
L 210.374831 232.430981 
L 212.063603 232.317928 
L 213.740081 232.189036 
L 215.40266 232.044426 
L 217.049749 231.884237 
L 218.679774 231.708622 
L 220.291175 231.51775 
L 221.882411 231.311802 
L 223.451959 231.090977 
L 224.998318 230.855484 
L 226.520009 230.60555 
L 228.015577 230.341414 
L 229.48359 230.063327 
L 230.922644 229.771557 
L 232.331363 229.466382 
L 233.708399 229.148094 
L 235.052436 228.816998 
L 236.362186 228.47341 
L 237.636398 228.117659 
L 238.873853 227.750086 
L 240.073366 227.371041 
L 241.23379 226.980888 
L 242.354016 226.58 
L 243.432972 226.16876 
L 244.469625 225.747562 
L 245.462985 225.316808 
L 246.4121 224.876911 
L 247.316062 224.428291 
L 248.174008 223.971378 
L 248.985117 223.506608 
L 249.748612 223.034426 
L 250.463763 222.555285 
L 251.129886 222.069641 
L 251.746344 221.577961 
" clip-path="url(#pff08212b51)" style="fill: none; stroke: #7d7d7d; stroke-opacity: 0.55; stroke-width: 0.45; stroke-linecap: square"/>
   </g>
   <g id="line2d_84">
    <path d="M 169.516363 189.706907 
L 169.516363 233.460566 
" clip-path="url(#pff08212b51)" style="fill: none; stroke: #7d7d7d; stroke-opacity: 0.55; stroke-width: 0.45; stroke-linecap: square"/>
   </g>
   <g id="line2d_85">
    <path d="M 146.674701 192.408854 
L 146.674701 236.162514 
" clip-path="url(#pff08212b51)" style="fill: none; stroke: #7d7d7d; stroke-opacity: 0.55; stroke-width: 0.45; stroke-linecap: square"/>
   </g>
   <g id="line2d_86">
    <path d="M 228.904683 189.706907 
L 228.904683 233.460566 
" clip-path="url(#pff08212b51)" style="fill: none; stroke: #7d7d7d; stroke-opacity: 0.55; stroke-width: 0.45; stroke-linecap: square"/>
   </g>
   <g id="line2d_87">
    <path d="M 251.746344 192.408854 
L 251.746344 236.162514 
" clip-path="url(#pff08212b51)" style="fill: none; stroke: #7d7d7d; stroke-opacity: 0.55; stroke-width: 0.45; stroke-linecap: square"/>
   </g>
  </g>
 </g>
 <defs>
  <clipPath id="pff08212b51">
   <rect x="2.88" y="2.88" width="420.708263" height="277.2"/>
  </clipPath>
 </defs>
</svg>
